<?xml version="1.0" encoding="UTF-8" standalone="no"?><svg xmlns="http://www.w3.org/2000/svg" xmlns:xlink="http://www.w3.org/1999/xlink" contentScriptType="application/ecmascript" contentStyleType="text/css" height="362px" preserveAspectRatio="none" style="width:325px;height:362px;" version="1.1" viewBox="0 0 325 362" width="325px" zoomAndPan="magnify"><defs><filter height="300%" id="f1uycuf36na6vj" width="300%" x="-1" y="-1"><feGaussianBlur result="blurOut" stdDeviation="2.0"/><feColorMatrix in="blurOut" result="blurOut2" type="matrix" values="0 0 0 0 0 0 0 0 0 0 0 0 0 0 0 0 0 0 .4 0"/><feOffset dx="4.0" dy="4.0" in="blurOut2" result="blurOut3"/><feBlend in="SourceGraphic" in2="blurOut3" mode="normal"/></filter></defs><g><ellipse cx="170" cy="20" fill="#000000" filter="url(#f1uycuf36na6vj)" rx="10" ry="10" style="stroke: none; stroke-width: 1.0;"/><rect fill="#FEFECE" filter="url(#f1uycuf36na6vj)" height="33.9688" rx="12.5" ry="12.5" style="stroke: #A80036; stroke-width: 1.5;" width="56" x="142" y="50"/><text fill="#000000" font-family="sans-serif" font-size="12" lengthAdjust="spacingAndGlyphs" textLength="36" x="152" y="71.1387">步骤一</text><path d="M218,108.3867 L218,116.9531 L198,120.9531 L218,124.9531 L218,133.5195 A0,0 0 0 0 218,133.5195 L312,133.5195 A0,0 0 0 0 312,133.5195 L312,118.3867 L302,108.3867 L218,108.3867 A0,0 0 0 0 218,108.3867 " fill="#FBFB77" filter="url(#f1uycuf36na6vj)" style="stroke: #A80036; stroke-width: 1.0;"/><path d="M302,108.3867 L302,118.3867 L312,118.3867 L302,108.3867 " fill="#FBFB77" style="stroke: #A80036; stroke-width: 1.0;"/><text fill="#000000" font-family="sans-serif" font-size="13" lengthAdjust="spacingAndGlyphs" textLength="73" x="224" y="125.4536">步骤2的注释</text><rect fill="#FEFECE" filter="url(#f1uycuf36na6vj)" height="33.9688" rx="12.5" ry="12.5" style="stroke: #A80036; stroke-width: 1.5;" width="56" x="142" y="103.9688"/><text fill="#000000" font-family="sans-serif" font-size="12" lengthAdjust="spacingAndGlyphs" textLength="36" x="152" y="125.1074">步骤二</text><polygon fill="#FEFECE" filter="url(#f1uycuf36na6vj)" points="153.5,157.9375,186.5,157.9375,198.5,169.9375,186.5,181.9375,153.5,181.9375,141.5,169.9375,153.5,157.9375" style="stroke: #A80036; stroke-width: 1.5;"/><text fill="#000000" font-family="sans-serif" font-size="11" lengthAdjust="spacingAndGlyphs" textLength="33" x="153.5" y="173.7456">条件一</text><text fill="#000000" font-family="sans-serif" font-size="11" lengthAdjust="spacingAndGlyphs" textLength="7" x="134.5" y="167.3433">Y</text><text fill="#000000" font-family="sans-serif" font-size="11" lengthAdjust="spacingAndGlyphs" textLength="8" x="198.5" y="167.3433">N</text><path d="M114,196.3555 L114,204.9219 L94,208.9219 L114,212.9219 L114,221.4883 A0,0 0 0 0 114,221.4883 L242,221.4883 A0,0 0 0 0 242,221.4883 L242,206.3555 L232,196.3555 L114,196.3555 A0,0 0 0 0 114,196.3555 " fill="#FBFB77" filter="url(#f1uycuf36na6vj)" style="stroke: #A80036; stroke-width: 1.0;"/><path d="M232,196.3555 L232,206.3555 L242,206.3555 L232,196.3555 " fill="#FBFB77" style="stroke: #A80036; stroke-width: 1.0;"/><text fill="#000000" font-family="sans-serif" font-size="13" lengthAdjust="spacingAndGlyphs" textLength="107" x="120" y="213.4224">分支1步骤1的注释</text><rect fill="#FEFECE" filter="url(#f1uycuf36na6vj)" height="33.9688" rx="12.5" ry="12.5" style="stroke: #A80036; stroke-width: 1.5;" width="84" x="10" y="191.9375"/><text fill="#000000" font-family="sans-serif" font-size="12" lengthAdjust="spacingAndGlyphs" textLength="64" x="20" y="213.0762">分支1步骤1</text><rect fill="#FEFECE" filter="url(#f1uycuf36na6vj)" height="33.9688" rx="12.5" ry="12.5" style="stroke: #A80036; stroke-width: 1.5;" width="84" x="10" y="245.9063"/><text fill="#000000" font-family="sans-serif" font-size="12" lengthAdjust="spacingAndGlyphs" textLength="64" x="20" y="267.0449">分支1步骤2</text><rect fill="#FEFECE" filter="url(#f1uycuf36na6vj)" height="33.9688" rx="12.5" ry="12.5" style="stroke: #A80036; stroke-width: 1.5;" width="52" x="262" y="191.9375"/><text fill="#000000" font-family="sans-serif" font-size="12" lengthAdjust="spacingAndGlyphs" textLength="32" x="272" y="213.0762">分支2</text><polygon fill="#FEFECE" filter="url(#f1uycuf36na6vj)" points="170,285.875,182,297.875,170,309.875,158,297.875,170,285.875" style="stroke: #A80036; stroke-width: 1.5;"/><ellipse cx="170" cy="340.875" fill="#FFFFFF" filter="url(#f1uycuf36na6vj)" rx="11" ry="11" style="stroke: #000000; stroke-width: 1.0;"/><ellipse cx="170" cy="340.875" fill="#000000" rx="6" ry="6" style="stroke: #7F7F7F; stroke-width: 1.0;"/><line style="stroke: #A80036; stroke-width: 1.5;" x1="170" x2="170" y1="30" y2="50"/><polygon fill="#A80036" points="166,40,170,50,174,40,170,44" style="stroke: #A80036; stroke-width: 1.0;"/><line style="stroke: #A80036; stroke-width: 1.5;" x1="170" x2="170" y1="83.9688" y2="103.9688"/><polygon fill="#A80036" points="166,93.9688,170,103.9688,174,93.9688,170,97.9688" style="stroke: #A80036; stroke-width: 1.0;"/><line style="stroke: #A80036; stroke-width: 1.5;" x1="52" x2="52" y1="225.9063" y2="245.9063"/><polygon fill="#A80036" points="48,235.9063,52,245.9063,56,235.9063,52,239.9063" style="stroke: #A80036; stroke-width: 1.0;"/><line style="stroke: #A80036; stroke-width: 1.5;" x1="141.5" x2="52" y1="169.9375" y2="169.9375"/><line style="stroke: #A80036; stroke-width: 1.5;" x1="52" x2="52" y1="169.9375" y2="191.9375"/><polygon fill="#A80036" points="48,181.9375,52,191.9375,56,181.9375,52,185.9375" style="stroke: #A80036; stroke-width: 1.0;"/><line style="stroke: #A80036; stroke-width: 1.5;" x1="198.5" x2="288" y1="169.9375" y2="169.9375"/><line style="stroke: #A80036; stroke-width: 1.5;" x1="288" x2="288" y1="169.9375" y2="191.9375"/><polygon fill="#A80036" points="284,181.9375,288,191.9375,292,181.9375,288,185.9375" style="stroke: #A80036; stroke-width: 1.0;"/><line style="stroke: #A80036; stroke-width: 1.5;" x1="52" x2="52" y1="279.875" y2="297.875"/><line style="stroke: #A80036; stroke-width: 1.5;" x1="52" x2="158" y1="297.875" y2="297.875"/><polygon fill="#A80036" points="148,293.875,158,297.875,148,301.875,152,297.875" style="stroke: #A80036; stroke-width: 1.0;"/><line style="stroke: #A80036; stroke-width: 1.5;" x1="288" x2="288" y1="225.9063" y2="297.875"/><line style="stroke: #A80036; stroke-width: 1.5;" x1="288" x2="182" y1="297.875" y2="297.875"/><polygon fill="#A80036" points="192,293.875,182,297.875,192,301.875,188,297.875" style="stroke: #A80036; stroke-width: 1.0;"/><line style="stroke: #A80036; stroke-width: 1.5;" x1="170" x2="170" y1="137.9375" y2="157.9375"/><polygon fill="#A80036" points="166,147.9375,170,157.9375,174,147.9375,170,151.9375" style="stroke: #A80036; stroke-width: 1.0;"/><line style="stroke: #A80036; stroke-width: 1.5;" x1="170" x2="170" y1="309.875" y2="329.875"/><polygon fill="#A80036" points="166,319.875,170,329.875,174,319.875,170,323.875" style="stroke: #A80036; stroke-width: 1.0;"/></g></svg>