<?xml version="1.0" encoding="UTF-8" standalone="no"?><svg xmlns="http://www.w3.org/2000/svg" xmlns:xlink="http://www.w3.org/1999/xlink" contentScriptType="application/ecmascript" contentStyleType="text/css" height="376px" preserveAspectRatio="none" style="width:276px;height:376px;" version="1.1" viewBox="0 0 276 376" width="276px" zoomAndPan="magnify"><defs><filter height="300%" id="faltbwkxtf2vn" width="300%" x="-1" y="-1"><feGaussianBlur result="blurOut" stdDeviation="2.0"/><feColorMatrix in="blurOut" result="blurOut2" type="matrix" values="0 0 0 0 0 0 0 0 0 0 0 0 0 0 0 0 0 0 .4 0"/><feOffset dx="4.0" dy="4.0" in="blurOut2" result="blurOut3"/><feBlend in="SourceGraphic" in2="blurOut3" mode="normal"/></filter></defs><g><ellipse cx="32" cy="95.5" fill="#000000" filter="url(#faltbwkxtf2vn)" rx="10" ry="10" style="stroke: none; stroke-width: 1.0;"/><rect fill="#FEFECE" filter="url(#faltbwkxtf2vn)" height="33.9688" rx="12.5" ry="12.5" style="stroke: #A80036; stroke-width: 1.5;" width="52" x="6" y="8"/><text fill="#000000" font-family="sans-serif" font-size="12" lengthAdjust="spacingAndGlyphs" textLength="32" x="16" y="29.1387">步骤1</text><rect fill="#FEFECE" filter="url(#faltbwkxtf2vn)" height="33.9688" rx="12.5" ry="12.5" style="stroke: #A80036; stroke-width: 1.5;" width="52" x="78" y="8"/><text fill="#000000" font-family="sans-serif" font-size="12" lengthAdjust="spacingAndGlyphs" textLength="32" x="88" y="29.1387">步骤2</text><path d="M150,12.5 L150,21 L130.1563,25 L150,29 L150,37.6328 A0,0 0 0 0 150,37.6328 L244,37.6328 A0,0 0 0 0 244,37.6328 L244,22.5 L234,12.5 L150,12.5 A0,0 0 0 0 150,12.5 " fill="#FBFB77" filter="url(#faltbwkxtf2vn)" style="stroke: #A80036; stroke-width: 1.0;"/><path d="M234,12.5 L234,22.5 L244,22.5 L234,12.5 " fill="#FBFB77" style="stroke: #A80036; stroke-width: 1.0;"/><text fill="#000000" font-family="sans-serif" font-size="13" lengthAdjust="spacingAndGlyphs" textLength="73" x="156" y="29.5669">步骤2的注释</text><polygon fill="#FEFECE" filter="url(#faltbwkxtf2vn)" points="104,83.5,116,95.5,104,107.5,92,95.5,104,83.5" style="stroke: #A80036; stroke-width: 1.5;"/><rect fill="#FEFECE" filter="url(#faltbwkxtf2vn)" height="33.9688" rx="12.5" ry="12.5" style="stroke: #A80036; stroke-width: 1.5;" width="84" x="135" y="162"/><text fill="#000000" font-family="sans-serif" font-size="12" lengthAdjust="spacingAndGlyphs" textLength="64" x="145" y="183.1387">分支1步骤1</text><path d="M136,83 L136,108.1328 A0,0 0 0 0 136,108.1328 L192.5068,108.1328 L181.7251,161.8458 L200.5068,108.1328 L264,108.1328 A0,0 0 0 0 264,108.1328 L264,93 L254,83 L136,83 A0,0 0 0 0 136,83 " fill="#FBFB77" filter="url(#faltbwkxtf2vn)" style="stroke: #A80036; stroke-width: 1.0;"/><path d="M254,83 L254,93 L264,93 L254,83 " fill="#FBFB77" style="stroke: #A80036; stroke-width: 1.0;"/><text fill="#000000" font-family="sans-serif" font-size="13" lengthAdjust="spacingAndGlyphs" textLength="107" x="142" y="100.0669">分支1步骤1的注释</text><rect fill="#FEFECE" filter="url(#faltbwkxtf2vn)" height="33.9688" rx="12.5" ry="12.5" style="stroke: #A80036; stroke-width: 1.5;" width="84" x="135" y="270"/><text fill="#000000" font-family="sans-serif" font-size="12" lengthAdjust="spacingAndGlyphs" textLength="64" x="145" y="291.1387">分之1步骤2</text><ellipse cx="117" cy="355" fill="none" filter="url(#faltbwkxtf2vn)" rx="10" ry="10" style="stroke: #000000; stroke-width: 1.0;"/><ellipse cx="117.5" cy="355.5" fill="#000000" rx="6" ry="6" style="stroke: none; stroke-width: 1.0;"/><rect fill="#FEFECE" filter="url(#faltbwkxtf2vn)" height="33.9688" rx="12.5" ry="12.5" style="stroke: #A80036; stroke-width: 1.5;" width="52" x="78" y="216"/><text fill="#000000" font-family="sans-serif" font-size="12" lengthAdjust="spacingAndGlyphs" textLength="32" x="88" y="237.1387">分支2</text><path d="M32,47.3467 C32,60.0965 32,75.459 32,85.3475 " fill="none" id="步骤1&lt;-start" style="stroke: #A80036; stroke-width: 1.0;"/><polygon fill="#A80036" points="32,42.0661,28,51.0661,32,47.0661,36,51.0661,32,42.0661" style="stroke: #A80036; stroke-width: 1.0;"/><path d="M58.1563,25 C62.9783,25 67.8003,25 72.6223,25 " fill="none" id="步骤1-&gt;步骤2" style="stroke: #A80036; stroke-width: 1.0;"/><polygon fill="#A80036" points="77.8547,25,68.8547,21,72.8547,25,68.8547,29,77.8547,25" style="stroke: #A80036; stroke-width: 1.0;"/><path d="M104,42.0661 C104,52.9925 104,67.1289 104,78.1167 " fill="none" id="步骤2-&gt;#11" style="stroke: #A80036; stroke-width: 1.0;"/><polygon fill="#A80036" points="104,83.2299,108,74.2299,104,78.2299,100,74.2299,104,83.2299" style="stroke: #A80036; stroke-width: 1.0;"/><text fill="#000000" font-family="sans-serif" font-size="11" lengthAdjust="spacingAndGlyphs" textLength="33" x="62.9563" y="72.7298">条件一</text><path d="M109.7282,102.0521 C120.1026,113.9187 142.4167,139.4424 158.5047,157.8444 " fill="none" id="#11-&gt;分支1步骤1" style="stroke: #A80036; stroke-width: 1.0;"/><polygon fill="#A80036" points="162.0402,161.8884,159.1279,152.48,158.7492,158.1242,153.1051,157.7455,162.0402,161.8884" style="stroke: #A80036; stroke-width: 1.0;"/><text fill="#000000" font-family="sans-serif" font-size="11" lengthAdjust="spacingAndGlyphs" textLength="7" x="143" y="139.2104">Y</text><path d="M177,196.3521 C177,214.8528 177,244.22 177,264.4893 " fill="none" id="分支1步骤1-&gt;分之1步骤2" style="stroke: #A80036; stroke-width: 1.0;"/><polygon fill="#A80036" points="177,269.691,181,260.691,177,264.691,173,260.691,177,269.691" style="stroke: #A80036; stroke-width: 1.0;"/><path d="M161.8595,304.1593 C151.0715,316.3856 136.8539,332.4989 127.3437,343.2771 " fill="none" id="分之1步骤2-&gt;end" style="stroke: #A80036; stroke-width: 1.0;"/><polygon fill="#A80036" points="123.8243,347.2657,132.7783,343.1637,127.1325,343.5165,126.7796,337.8707,123.8243,347.2657" style="stroke: #A80036; stroke-width: 1.0;"/><path d="M104,107.7022 C104,130.8432 104,181.4093 104,210.7386 " fill="none" id="#11-&gt;分支2" style="stroke: #A80036; stroke-width: 1.0;"/><polygon fill="#A80036" points="104,215.9565,108,206.9565,104,210.9565,100,206.9565,104,215.9565" style="stroke: #A80036; stroke-width: 1.0;"/><text fill="#000000" font-family="sans-serif" font-size="11" lengthAdjust="spacingAndGlyphs" textLength="8" x="105" y="139.2104">N</text><path d="M105.835,250.2209 C108.3879,274.179 112.97,317.1802 115.3943,339.9316 " fill="none" id="分支2-&gt;end" style="stroke: #A80036; stroke-width: 1.0;"/><polygon fill="#A80036" points="115.9337,344.9928,118.9572,335.6195,115.4037,340.021,111.0022,336.4675,115.9337,344.9928" style="stroke: #A80036; stroke-width: 1.0;"/></g></svg>