<?xml version="1.0" encoding="UTF-8" standalone="no"?><svg xmlns="http://www.w3.org/2000/svg" xmlns:xlink="http://www.w3.org/1999/xlink" contentScriptType="application/ecmascript" contentStyleType="text/css" height="356px" preserveAspectRatio="none" style="width:666px;height:356px;" version="1.1" viewBox="0 0 666 356" width="666px" zoomAndPan="magnify"><defs><filter height="300%" id="ftv71try87ydf" width="300%" x="-1" y="-1"><feGaussianBlur result="blurOut" stdDeviation="2.0"/><feColorMatrix in="blurOut" result="blurOut2" type="matrix" values="0 0 0 0 0 0 0 0 0 0 0 0 0 0 0 0 0 0 .4 0"/><feOffset dx="4.0" dy="4.0" in="blurOut2" result="blurOut3"/><feBlend in="SourceGraphic" in2="blurOut3" mode="normal"/></filter></defs><g><rect fill="#FEFECE" filter="url(#ftv71try87ydf)" height="48" id="Class01" style="stroke: #A80036; stroke-width: 1.5;" width="81" x="6" y="46.5"/><ellipse cx="21" cy="62.5" fill="#ADD1B2" rx="11" ry="11" style="stroke: #A80036; stroke-width: 1.0;"/><path d="M23.9688,68.1406 Q23.3906,68.4375 22.75,68.5859 Q22.1094,68.7344 21.4063,68.7344 Q18.9063,68.7344 17.5859,67.0859 Q16.2656,65.4375 16.2656,62.3125 Q16.2656,59.1875 17.5859,57.5313 Q18.9063,55.875 21.4063,55.875 Q22.1094,55.875 22.7578,56.0313 Q23.4063,56.1875 23.9688,56.4844 L23.9688,59.2031 Q23.3438,58.625 22.75,58.3516 Q22.1563,58.0781 21.5313,58.0781 Q20.1875,58.0781 19.5,59.1484 Q18.8125,60.2188 18.8125,62.3125 Q18.8125,64.4063 19.5,65.4766 Q20.1875,66.5469 21.5313,66.5469 Q22.1563,66.5469 22.75,66.2734 Q23.3438,66 23.9688,65.4219 L23.9688,68.1406 Z "/><text fill="#000000" font-family="sans-serif" font-size="12" lengthAdjust="spacingAndGlyphs" textLength="49" x="35" y="66.6543">Class01</text><line style="stroke: #A80036; stroke-width: 1.5;" x1="7" x2="86" y1="78.5" y2="78.5"/><line style="stroke: #A80036; stroke-width: 1.5;" x1="7" x2="86" y1="86.5" y2="86.5"/><rect fill="#FEFECE" filter="url(#ftv71try87ydf)" height="48" id="Class02" style="stroke: #A80036; stroke-width: 1.5;" width="81" x="6" y="210"/><ellipse cx="21" cy="226" fill="#ADD1B2" rx="11" ry="11" style="stroke: #A80036; stroke-width: 1.0;"/><path d="M23.9688,231.6406 Q23.3906,231.9375 22.75,232.0859 Q22.1094,232.2344 21.4063,232.2344 Q18.9063,232.2344 17.5859,230.5859 Q16.2656,228.9375 16.2656,225.8125 Q16.2656,222.6875 17.5859,221.0313 Q18.9063,219.375 21.4063,219.375 Q22.1094,219.375 22.7578,219.5313 Q23.4063,219.6875 23.9688,219.9844 L23.9688,222.7031 Q23.3438,222.125 22.75,221.8516 Q22.1563,221.5781 21.5313,221.5781 Q20.1875,221.5781 19.5,222.6484 Q18.8125,223.7188 18.8125,225.8125 Q18.8125,227.9063 19.5,228.9766 Q20.1875,230.0469 21.5313,230.0469 Q22.1563,230.0469 22.75,229.7734 Q23.3438,229.5 23.9688,228.9219 L23.9688,231.6406 Z "/><text fill="#000000" font-family="sans-serif" font-size="12" lengthAdjust="spacingAndGlyphs" textLength="49" x="35" y="230.1543">Class02</text><line style="stroke: #A80036; stroke-width: 1.5;" x1="7" x2="86" y1="242" y2="242"/><line style="stroke: #A80036; stroke-width: 1.5;" x1="7" x2="86" y1="250" y2="250"/><rect fill="#FEFECE" filter="url(#ftv71try87ydf)" height="48" id="Class03" style="stroke: #A80036; stroke-width: 1.5;" width="81" x="122" y="46.5"/><ellipse cx="137" cy="62.5" fill="#ADD1B2" rx="11" ry="11" style="stroke: #A80036; stroke-width: 1.0;"/><path d="M139.9688,68.1406 Q139.3906,68.4375 138.75,68.5859 Q138.1094,68.7344 137.4063,68.7344 Q134.9063,68.7344 133.5859,67.0859 Q132.2656,65.4375 132.2656,62.3125 Q132.2656,59.1875 133.5859,57.5313 Q134.9063,55.875 137.4063,55.875 Q138.1094,55.875 138.7578,56.0313 Q139.4063,56.1875 139.9688,56.4844 L139.9688,59.2031 Q139.3438,58.625 138.75,58.3516 Q138.1563,58.0781 137.5313,58.0781 Q136.1875,58.0781 135.5,59.1484 Q134.8125,60.2188 134.8125,62.3125 Q134.8125,64.4063 135.5,65.4766 Q136.1875,66.5469 137.5313,66.5469 Q138.1563,66.5469 138.75,66.2734 Q139.3438,66 139.9688,65.4219 L139.9688,68.1406 Z "/><text fill="#000000" font-family="sans-serif" font-size="12" lengthAdjust="spacingAndGlyphs" textLength="49" x="151" y="66.6543">Class03</text><line style="stroke: #A80036; stroke-width: 1.5;" x1="123" x2="202" y1="78.5" y2="78.5"/><line style="stroke: #A80036; stroke-width: 1.5;" x1="123" x2="202" y1="86.5" y2="86.5"/><rect fill="#FEFECE" filter="url(#ftv71try87ydf)" height="48" id="Class04" style="stroke: #A80036; stroke-width: 1.5;" width="81" x="122" y="210"/><ellipse cx="137" cy="226" fill="#ADD1B2" rx="11" ry="11" style="stroke: #A80036; stroke-width: 1.0;"/><path d="M139.9688,231.6406 Q139.3906,231.9375 138.75,232.0859 Q138.1094,232.2344 137.4063,232.2344 Q134.9063,232.2344 133.5859,230.5859 Q132.2656,228.9375 132.2656,225.8125 Q132.2656,222.6875 133.5859,221.0313 Q134.9063,219.375 137.4063,219.375 Q138.1094,219.375 138.7578,219.5313 Q139.4063,219.6875 139.9688,219.9844 L139.9688,222.7031 Q139.3438,222.125 138.75,221.8516 Q138.1563,221.5781 137.5313,221.5781 Q136.1875,221.5781 135.5,222.6484 Q134.8125,223.7188 134.8125,225.8125 Q134.8125,227.9063 135.5,228.9766 Q136.1875,230.0469 137.5313,230.0469 Q138.1563,230.0469 138.75,229.7734 Q139.3438,229.5 139.9688,228.9219 L139.9688,231.6406 Z "/><text fill="#000000" font-family="sans-serif" font-size="12" lengthAdjust="spacingAndGlyphs" textLength="49" x="151" y="230.1543">Class04</text><line style="stroke: #A80036; stroke-width: 1.5;" x1="123" x2="202" y1="242" y2="242"/><line style="stroke: #A80036; stroke-width: 1.5;" x1="123" x2="202" y1="250" y2="250"/><rect fill="#FEFECE" filter="url(#ftv71try87ydf)" height="124.8281" id="Class05" style="stroke: #A80036; stroke-width: 1.5;" width="111" x="238" y="8"/><ellipse cx="266.5" cy="24" fill="#ADD1B2" rx="11" ry="11" style="stroke: #A80036; stroke-width: 1.0;"/><path d="M269.4688,29.6406 Q268.8906,29.9375 268.25,30.0859 Q267.6094,30.2344 266.9063,30.2344 Q264.4063,30.2344 263.0859,28.5859 Q261.7656,26.9375 261.7656,23.8125 Q261.7656,20.6875 263.0859,19.0313 Q264.4063,17.375 266.9063,17.375 Q267.6094,17.375 268.2578,17.5313 Q268.9063,17.6875 269.4688,17.9844 L269.4688,20.7031 Q268.8438,20.125 268.25,19.8516 Q267.6563,19.5781 267.0313,19.5781 Q265.6875,19.5781 265,20.6484 Q264.3125,21.7188 264.3125,23.8125 Q264.3125,25.9063 265,26.9766 Q265.6875,28.0469 267.0313,28.0469 Q267.6563,28.0469 268.25,27.7734 Q268.8438,27.5 269.4688,26.9219 L269.4688,29.6406 Z "/><text fill="#000000" font-family="sans-serif" font-size="12" lengthAdjust="spacingAndGlyphs" textLength="49" x="283.5" y="28.1543">Class05</text><line style="stroke: #A80036; stroke-width: 1.5;" x1="239" x2="348" y1="40" y2="40"/><text fill="#000000" font-family="sans-serif" font-size="11" lengthAdjust="spacingAndGlyphs" text-decoration="underline" textLength="48" x="258" y="54.2104">String id</text><rect fill="none" height="6" style="stroke: #C82930; stroke-width: 1.0;" width="6" x="246" y="60.8047"/><text fill="#000000" font-family="sans-serif" font-size="11" lengthAdjust="spacingAndGlyphs" textLength="31" x="258" y="67.0151">field1</text><polygon fill="none" points="249,71.6094,253,75.6094,249,79.6094,245,75.6094" style="stroke: #B38D22; stroke-width: 1.0;"/><text fill="#000000" font-family="sans-serif" font-size="11" lengthAdjust="spacingAndGlyphs" textLength="31" x="258" y="79.8198">field2</text><line style="stroke: #A80036; stroke-width: 1.5;" x1="239" x2="348" y1="86.4141" y2="86.4141"/><text fill="#000000" font-family="sans-serif" font-size="11" font-style="italic" lengthAdjust="spacingAndGlyphs" textLength="85" x="258" y="100.6245">void methods()</text><polygon fill="#4177AF" points="249,106.2188,245,112.2188,253,112.2188" style="stroke: #1963A0; stroke-width: 1.0;"/><text fill="#000000" font-family="sans-serif" font-size="11" lengthAdjust="spacingAndGlyphs" textLength="58" x="258" y="113.4292">method1()</text><ellipse cx="249" cy="123.0234" fill="#84BE84" rx="3" ry="3" style="stroke: #038048; stroke-width: 1.0;"/><text fill="#000000" font-family="sans-serif" font-size="11" lengthAdjust="spacingAndGlyphs" textLength="58" x="258" y="126.2339">method2()</text><rect fill="#FEFECE" filter="url(#ftv71try87ydf)" height="48" id="Class06" style="stroke: #A80036; stroke-width: 1.5;" width="81" x="253" y="210"/><ellipse cx="268" cy="226" fill="#ADD1B2" rx="11" ry="11" style="stroke: #A80036; stroke-width: 1.0;"/><path d="M270.9688,231.6406 Q270.3906,231.9375 269.75,232.0859 Q269.1094,232.2344 268.4063,232.2344 Q265.9063,232.2344 264.5859,230.5859 Q263.2656,228.9375 263.2656,225.8125 Q263.2656,222.6875 264.5859,221.0313 Q265.9063,219.375 268.4063,219.375 Q269.1094,219.375 269.7578,219.5313 Q270.4063,219.6875 270.9688,219.9844 L270.9688,222.7031 Q270.3438,222.125 269.75,221.8516 Q269.1563,221.5781 268.5313,221.5781 Q267.1875,221.5781 266.5,222.6484 Q265.8125,223.7188 265.8125,225.8125 Q265.8125,227.9063 266.5,228.9766 Q267.1875,230.0469 268.5313,230.0469 Q269.1563,230.0469 269.75,229.7734 Q270.3438,229.5 270.9688,228.9219 L270.9688,231.6406 Z "/><text fill="#000000" font-family="sans-serif" font-size="12" lengthAdjust="spacingAndGlyphs" textLength="49" x="282" y="230.1543">Class06</text><line style="stroke: #A80036; stroke-width: 1.5;" x1="254" x2="333" y1="242" y2="242"/><line style="stroke: #A80036; stroke-width: 1.5;" x1="254" x2="333" y1="250" y2="250"/><path d="M221.5,319 L221.5,344.1328 A0,0 0 0 0 221.5,344.1328 L365.5,344.1328 A0,0 0 0 0 365.5,344.1328 L365.5,329 L355.5,319 L297.5,319 L293.5,258.1011 L289.5,319 L221.5,319 A0,0 0 0 0 221.5,319 " fill="#FBFB77" filter="url(#ftv71try87ydf)" style="stroke: #A80036; stroke-width: 1.0;"/><path d="M355.5,319 L355.5,329 L365.5,329 L355.5,319 " fill="#FBFB77" style="stroke: #A80036; stroke-width: 1.0;"/><text fill="#000000" font-family="sans-serif" font-size="13" lengthAdjust="spacingAndGlyphs" textLength="123" x="227.5" y="336.0669">这是 Class06 的注释</text><rect fill="#FEFECE" filter="url(#ftv71try87ydf)" height="86.4141" id="TimeUnit" style="stroke: #A80036; stroke-width: 1.5;" width="86" x="384.5" y="27.5"/><ellipse cx="399.5" cy="43.5" fill="#EB937F" rx="11" ry="11" style="stroke: #A80036; stroke-width: 1.0;"/><path d="M403.6094,49.5 L395.8906,49.5 L395.8906,37.1094 L403.6094,37.1094 L403.6094,39.2656 L398.3438,39.2656 L398.3438,41.9375 L403.1094,41.9375 L403.1094,44.0938 L398.3438,44.0938 L398.3438,47.3438 L403.6094,47.3438 L403.6094,49.5 Z "/><text fill="#000000" font-family="sans-serif" font-size="12" lengthAdjust="spacingAndGlyphs" textLength="54" x="413.5" y="47.6543">TimeUnit</text><line style="stroke: #A80036; stroke-width: 1.5;" x1="385.5" x2="469.5" y1="59.5" y2="59.5"/><text fill="#000000" font-family="sans-serif" font-size="11" lengthAdjust="spacingAndGlyphs" textLength="30" x="390.5" y="73.7104">DAYS</text><text fill="#000000" font-family="sans-serif" font-size="11" lengthAdjust="spacingAndGlyphs" textLength="40" x="390.5" y="86.5151">HOURS</text><text fill="#000000" font-family="sans-serif" font-size="11" lengthAdjust="spacingAndGlyphs" textLength="50" x="390.5" y="99.3198">MINUTES</text><line style="stroke: #A80036; stroke-width: 1.5;" x1="385.5" x2="469.5" y1="105.9141" y2="105.9141"/><rect fill="#FEFECE" filter="url(#ftv71try87ydf)" height="48" id="SuppressWarnings" style="stroke: #A80036; stroke-width: 1.5;" width="149" x="506" y="46.5"/><ellipse cx="521" cy="62.5" fill="#E3664A" rx="11" ry="11" style="stroke: #A80036; stroke-width: 1.0;"/><path d="M523.0781,62.9688 Q523.0781,62.0313 522.6563,61.5 Q522.2344,60.9688 521.4844,60.9688 Q520.75,60.9688 520.3359,61.5 Q519.9219,62.0313 519.9219,62.9688 Q519.9219,63.9219 520.3359,64.4531 Q520.75,64.9844 521.4844,64.9844 Q522.2344,64.9844 522.6563,64.4531 Q523.0781,63.9219 523.0781,62.9688 Z M524.625,66.375 L523,66.375 L523,65.7031 Q522.6719,66.1406 522.25,66.3438 Q521.8281,66.5469 521.2188,66.5469 Q519.8594,66.5469 519.0313,65.5703 Q518.2031,64.5938 518.2031,62.9688 Q518.2031,61.375 519.0313,60.3984 Q519.8594,59.4219 521.2188,59.4219 Q521.8125,59.4219 522.2656,59.625 Q522.7188,59.8281 523,60.2188 L523,59.875 Q523,58.75 522.375,58.1328 Q521.75,57.5156 520.6094,57.5156 Q518.8906,57.5156 517.7969,59.0391 Q516.7031,60.5625 516.7031,63 Q516.7031,65.5469 517.9609,67.0469 Q519.2188,68.5469 521.3281,68.5469 Q521.9844,68.5469 522.6094,68.3594 Q523.2344,68.1719 523.8125,67.7813 L524.5781,69.2344 Q523.9063,69.6875 523.1094,69.9141 Q522.3125,70.1406 521.4063,70.1406 Q518.5,70.1406 516.7734,68.2109 Q515.0469,66.2813 515.0469,63 Q515.0469,59.7813 516.6016,57.8516 Q518.1563,55.9219 520.7188,55.9219 Q522.5156,55.9219 523.5703,57.0156 Q524.625,58.1094 524.625,59.9844 L524.625,66.375 Z "/><text fill="#000000" font-family="sans-serif" font-size="12" lengthAdjust="spacingAndGlyphs" textLength="117" x="535" y="66.6543">SuppressWarnings</text><line style="stroke: #A80036; stroke-width: 1.5;" x1="507" x2="654" y1="78.5" y2="78.5"/><line style="stroke: #A80036; stroke-width: 1.5;" x1="507" x2="654" y1="86.5" y2="86.5"/><path d="M46.5,114.9644 C46.5,145.4979 46.5,184.8629 46.5,209.776 " fill="none" id="Class01&lt;-Class02" style="stroke: #A80036; stroke-width: 1.0;"/><polygon fill="none" points="39.5001,114.625,46.5,94.625,53.5001,114.625,39.5001,114.625" style="stroke: #A80036; stroke-width: 1.0;"/><path d="M162.5,108.0205 C162.5,139.2958 162.5,182.9279 162.5,209.776 " fill="none" id="Class03&lt;-Class04" style="stroke: #A80036; stroke-width: 1.0;"/><polygon fill="#A80036" points="162.5,94.625,158.5,100.625,162.5,106.625,166.5,100.625,162.5,94.625" style="stroke: #A80036; stroke-width: 1.0;"/><text fill="#000000" font-family="sans-serif" font-size="13" lengthAdjust="spacingAndGlyphs" textLength="62" x="163.5" y="176.0669">一对N关系</text><text fill="#000000" font-family="sans-serif" font-size="13" lengthAdjust="spacingAndGlyphs" textLength="8" x="153.525" y="114.4167">1</text><text fill="#000000" font-family="sans-serif" font-size="13" lengthAdjust="spacingAndGlyphs" textLength="10" x="151.2813" y="199.1264">N</text><path d="M293.5,146.3111 C293.5,169.3591 293.5,193.04 293.5,209.9738 " fill="none" id="Class05&lt;-Class06" style="stroke: #A80036; stroke-width: 1.0;"/><polygon fill="#FFFFFF" points="293.5,133.2458,289.5,139.2458,293.5,145.2458,297.5,139.2458,293.5,133.2458" style="stroke: #A80036; stroke-width: 1.0;"/></g></svg>