<svg xmlns="http://www.w3.org/2000/svg"><defs><font id="iconfont" horiz-adv-x="1024"><font-face font-family="iconfont" font-weight="500" units-per-em="1024" panose-1="2 0 6 3 0 0 0 0 0 0" ascent="896" descent="-128" x-height="792" bbox="-1 -229.118 1050 896" underline-thickness="50" underline-position="-100" unicode-range="U+0078-FF31"/><glyph glyph-name=".notdef" horiz-adv-x="374" d="M34 0v682h272V0H34zm34 34h204v614H68V34z"/><glyph glyph-name=".null" horiz-adv-x="0"/><glyph glyph-name="nonmarkingreturn" horiz-adv-x="341"/><glyph glyph-name="x" unicode="x" horiz-adv-x="1001" d="M281 543q-27-1-53-1h-83q-18 0-36.5-6T76 517.5t-23-32-9-45.5v-76h912v41q0 16-.5 30t-.5 18q0 13-5 29t-17 29.5-31.5 22.5-49.5 9H719v-97H281v97zm674-233v-52q0-23 .5-52t.5-58-10.5-47.5-26-30-33-16T855 50q-14-1-29.5-.5T796 50h-32l-45 128H280L236 50h-63q-20 0-45 1-25 0-41 9.5t-25.5 23T48 113t-4 30v167h911zm-792-63q-12 0-21-8.5t-9-21.5 9-21.5 21-8.5q13 0 22 8.5t9 21.5-9 21.5-22 8.5zm153-124q-8-26-14-48-5-19-10.5-37T284 13t-3-15 1-14.5 9.5-10.5 21.5-4h365q23 0 34 12t2 38q-5 13-9.5 30.5T695 84q-5 19-11 39H316zm20 375v228q0 11 2.5 23t10 21.5T369 786t34 6h188q31 0 51.5-14.5T663 725V498H336z"/><glyph glyph-name="uni2121" unicode="℡" d="M877 776H147q-60 0-102.5-31.5T2 668V122q0-44 42.5-76T147 14h365l288-214-15 214h92q60 0 102.5 32t42.5 76v546q0 45-42.5 76.5T877 776zM226 315q-37 0-63 26t-26 63 26 63 63 26 63-26 26-63-26-63-63-26zm190 89q0 37 26 63t63 26 63-26 26-63-26-63-63-26-63 26-26 63zm375-87q-37 0-63 26t-26 62.5 26 63 63 26.5 63-26.5 26-63-26-62.5-63-26zm0 0z"/><glyph glyph-name="arrowup" unicode="↑" d="M148 27l-97 90 452 495 453-495-97-90-356 389z"/><glyph glyph-name="uni25C8" unicode="◈" d="M813 738q26 0 48.5-10t39.5-27 27-39.5 10-48.5V-75q0-26-10-48.5T901-163t-39.5-27-48.5-10H125q-26 0-48.5 10T37-163t-27 39.5T0-75v688q0 26 10 48.5T37 701t39.5 27 48.5 10h688zM184-102q19 0 36 7t29.5 19.5T269-46t7 36-7 36-19.5 29.5T220 75t-36 7q-20 0-36.5-7T118 55.5 98 26t-7-36 7-36 20-29.5T147.5-95t36.5-7zm252 26h36q15 0 29.5-.5T532-77t36 1q0 91-35 171.5T438 236t-140.5 94.5T126 365q-1-24-1-39v-28q0-14 .5-28.5t.5-36.5q64 0 120.5-24t98.5-66 66.5-98.5T436-76zm255 2q36 0 48-.5t18-1.5 15.5-1 40.5 2q0 142-54 266.5T612 409 394 556t-267 54q-1-25-1-36v-16q0-4 .5-5.5t.5-7 .5-18 .5-39.5q117 0 219.5-44t179-120.5 120.5-179T691-74z"/><glyph glyph-name="uni2603" unicode="☃" horiz-adv-x="1051" d="M525 800q-107 0-204-41T153.5 648.5t-112-166T0 280Q0 99 113-41.5T400-224q-1 185-1 191l-3-2q-4-2-10.5-4T371-43.5t-18-4-20.5-1.5-22 3.5-22 10-21 18T249 10q0 2-5 14t-9.5 21-14 21.5T201 87q-1 0-3.5 1.5T192 92l-8 6q-3 2-6 5.5t-3 6.5q-1 5 3 6l6 2q3 1 12 1t18-3 21.5-12T259 80q1-1 6.5-10T276 56l12-12q9-9 19-12.5t23-6.5 30.5.5T399 37q7 30 26 46-110 13-158 55.5T203 275q-9 61 5.5 111.5T253 465q-4 5-8.5 22.5t-2.5 50 15 62.5q24 4 63-10.5t78-42.5q56 18 135.5 16.5T652 547q23 19 70 39t70 13q7-15 11-35.5t3.5-49T797 464q63-64 50-180-8-89-59.5-140T624 83q50-34 50-85v-216q165 49 270.5 186.5T1050 280q0 106-41.5 202.5t-112 166T729 759t-204 41z"/><glyph glyph-name="uni261C" unicode="☜" d="M944 234q0-42-20-57t-64-15h-63q-43 0-91.5-.5T611 161h-73q-38 0-60.5-7.5T456 119q0-20-1-47.5T454 23q0-35-19-44.5T386-8q-30 24-71 56.5T231.5 115t-84 67T74 240q-30 24-30.5 45.5T71 330q28 24 67 55.5t81 65 82.5 66.5 72.5 59q35 28 57.5 21.5T454 555v-25q0-14 .5-29t1-29.5.5-25.5q1-25 16-31.5t41-6.5q29 0 76 .5t98 .5 99 .5 78 .5q13 0 27-2t25.5-9.5 19-21T943 342q0-27 .5-52t.5-56z"/><glyph glyph-name="uni261E" unicode="☞" horiz-adv-x="1000" d="M542 406L359 589l-94 93q-22 22-41 37t-41.5 26.5-44 9T99 734q-12-13-18-24.5t-3.5-25T83 662t16-24.5 20-22.5 25-26l275-274L144 40q-26-26-40-52.5T93.5-66t29.5-47q23-18 66.5 6T278-39l81 79 183 183q38 38 38 92t-38 91z"/><glyph glyph-name="invsmileface" unicode="☻" horiz-adv-x="1000" d="M913-175H506q-5 0-6 4-3 8-11 1l-3-5H116v24q0 23 1 25 1 17 2 29 6 47 17 79 11 29 28 51 6 9 14 17 14 13 31 22 18 10 25 13 8 4 24 10.5t20 8.5q7 3 11.5 6t7.5 11q3 9 13 18 1 1 16.5 13t22.5 20q8 9 11 13 16 15 30 20 3 2 5 2 4 0 4 5 0 20-8 38-3 5-7 14l-7 13q-3 6-9 18.5t-7 15.5q-2 3-3 5-3 3-4 3-13 3-21 18-26 45-26 46-8 15-9 27v19q0 4-4 5-2 0-2 3v21q0 1-2 16-5-3-6-3-6-3-5 3 0 4 .5 10t.5 7q0 4-3 3-2-1-6 0-4 0-3 4 2 7 6 22l1 7q-2 1-3 1-4-2-4.5 0t.5 7l3 5q-11 1-12 1-4 1-2 5 1 3 7 12 1 1 5 8l-8 3-1 8q4 3 6 5l3 2q-10 3-11 3 0 1-1 1h-1q-4 2-2 5 2 6 10 13 2 3 10 12 0 1 8 12-2 3-3 3-6 5 1 9 1 0 2.5 1t3.5 2 3 1l3 2q-5 2-6 2-6 4-6 5-2 3 2 6 2 1 5 3t5 4l12 12q2 2 14 15l2 2q-5 2-6 2t-4.5.5-4.5 3.5 2 5q9 5 21 7 1 0 7 1.5t9 2.5q6 2 26 14 17 10 24 12l9 3q-1 1-5.5 10t-4.5 14q7 1 19.5-2.5T435 768q-1 2-3 8t-2 7.5 1 7.5q7 0 16-6 12-9 18-9 3-1 4 1 6 8 12 17 6 8 12 9l1 1h2q-3-13-4-24l6 1q9 3 17 7 4 1 10 4t9 4l4 1q1-2 0-4t-2-4.5-2-3.5h8q16-1 25-3 9-1 20-3 12-2 28 3 2-3-.5-6t-3.5-4q18 2 28 3 1-3-7-13l9-7q7-6 11-9 1-1 8-7.5t11-9.5q2-2 7-2 34-6 42-8 0-5-4-7-2-1-16-7l8-11q2-3 10.5-14.5T731 662q1-2 5-9 1-2 0-2.5t-3-.5l-5 1q4-9 4-10 1 0 4.5-10t5.5-14q1-4 4-8t-2-7l-1-1q4-6 10-18.5t7-17.5q-3 0-9 2t-9 1q1-14 1-15 1-7 5-22 0-2 2-6 2-3-1.5-3.5t-5.5-.5q-4 1-4-2 0-2-1-5.5t-1-4.5v-1q2-5-1-8-4-3-8-3 3-16 3-18.5t-1-6.5h-1q-1-1-1 0l-4 3v-9q0-11-5-20v-2q4-17 4-31-1-12-7-22-11-18-12-20-2-3-9-23-5-13-12-17-7-3-12-3-6 0-9-5-6-9-10-24-5-19-16-35-9-15-13-23-4-10-2-24 16-1 29-5 11-5 21-13 16-13 26-34 2-5 17-38 2-3 4-8.5t3-7.5l1-1q17-14 20-16 11-8 26-13 17-5 37-18 37-24 40-26 12-8 22-18 9-10 17-31 8-20 17-56 3-12 7-38 2-8 4-28 1-10 1-19v-22zM667 336q11-1 16 8 2 5 3 10 4 12 22 43 11 18 8 34-3 15-14 21-4 3-7-1-4-5-7-9-7-10-12-11-7-1-7-7 0-4-5-5-4 0-5 4-2 10-2 11v14q-1 4-5 6-16 6-34 7-23 1-42-3-21-5-34-13-2-1-2-2v-24q0-5-4-6-6-2-8 3-1 4-2 22l1 6q-15 2-33-2v-21q0-6-3-8-5-5-6 1 0 1-1 16-2 9-2 11t-2 3q-23 9-41 13-11 1-20 2-12 1-19 0-10-2-20-6-7-3-13-9-4-3-3-16t0-16h-18q5-34 6-36 5-29 11-47 3-9 14-37 8-20 25-37 5-5 14-13 13-13 18-17 14-11 29-18 29-12 62-9 22 2 36 11 3 2 8.5 5t7.5 4q18 11 26 19 13 14 19 22 10 13 18 28 9 14 16 41 4 16 16 62 1 4 0 22 0 6 1 15l4 4 4-4v-1q3 7 15 10-1-2-4-5-8-10-9-16-2-7 3-9 0 5 1 6 0 1 3 2 1 0 1-2 2-11 2-16l-2-13h4l-1-3q0-2-1-3-2-1-3-1l-2 1-6-5q0-1-1-1h-2v4l1 3q-7-5-6-17 5-3 8 2l1 1 4 2q0-1 1-1-2-9-7-14-3-3-6-.5t-4 2.5-2-4q0-1-2-13zM520-128q9 13 9 14 6 11 14 42 8 28 18 40 4 5 13 14.5T584-6q16 18 19 21 24 33 37 90 1 2-1 3.5t-5.5 4-3.5 3.5q-19 13-21 29-2 14-1 25l2 35q1 1 2 25l-3-2q-9-3-31-20-16-13-33-17-18-4-45-3-12 1-25 4-14 4-38 20-19 14-31 18v-4q0-1 1.5-17t2.5-24q1-19-2-32t-10-18q-10-9-17-14-8-6-8-12 0-12 1-17 6-30 20-56 13-23 26-30 7-4 25-12 21-9 29-19 33-38 38-79 1-13 8-24zm148 583l1 1v20q-3 13-8 31-9 31-9 43 0 1-1 2-15 19-20 25l-6 6h-1q0-2 .5-6.5t.5-8-2-7.5q-7 9-7 10-2 2-4 5t-3 4q-4 7-7 10l-7 8q0-12-1-13-44 34-65 45l3-3q11-12 12-12 2-3 5-8 2-4-2-4h-12q-2 1-18 5 0-3-3-2-1 0-3.5 1t-3.5 1q-5 2-14.5 6.5T479 621q-5 2-6.5 1.5T468 618q-1 0-2-1t-1-2q-21-26-31-34l-3-1-2 3v6l-2-4q-9-14-10-14-7-11-15-16l-9-3v1q2 8 3 8 2 6 1 9-22-35-23-51-2 0-3.5 3.5T369 527q-6-12-7-13-5-11-5-13-1-3-3-23-2-23-3-24 0-1-4-13h8l5 11q6 9 21 13 24 7 57 4 22-2 43-12 7-4 13-2 5 1 25-1 18-1 27 5 13 9 40 12 19 2 36 1 21-2 38-8 4-1 5-5 1 0 3-4zm-332-25q-8 5-9 6-5 3-7 4-7 2-9-1-8-16-5-32 2-12 12-29 3-6 9.5-17t9.5-15q3-6 6-10 4-5 11-6-4 22-5 24-1 4-1.5 4.5T343 357q-4-1-5 2-2 4 4 5l5 1-1 5q-1 5-6 6l1-3 1-4q-4 1-5 1l-1 1q-9 9-8 22 0 9 8 12l-1-7v-7q2 0 3 1l2 1q-3 27-4 37zm18 239q7 8 21.5 18.5T394 702q-19-9-22-10-1-1-9-2-2 0-3 1 0 1 1 2t7 6q-4 1-7-2-5-5-21-22l-2-2v-1q8 5 15 11 4-6 1-14zM480-97q0 7-5 7-2 0-4.5-2.5T468-97t2-4.5 3-2.5q7 0 7 7zm200 482q4-1 5 4 2 7-3 10-1-3-1.5-8t-.5-6zm-337-3v4l-.5.5-1.5.5-5-5h7zM480-97q0-7-7-7-1 0-3 2.5t-2 4.5 2.5 4.5T475-90q5 0 5-7zm200 482q0 2 .5 6.5t1.5 7.5q5-3 3-10-1-5-5-4zm-337-3h-7l5 5q1 0 1.5-.5l.5-.5v-4zm267 67l3-21q4-2 0-6-4-5-12-5-16-1-27 4l-8 5 1 1h8q-3 11-2 16 0 1-1 1-8-9-12-12 0-1 1-3t2-3h-1v-1q-11 2-12 3 5 14 19 23 16 9 37 7 14-2 30-13l12-10 4-6q-22-2-26-3-2 0-4 1l-3 2 3 3 9 2h3q-5 7-24 15zm-20-3h-4q-6-2-6-5-1-3 2-5 4-3 7.5-1.5t4.5 5.5q2 6-4 6zm-130-21q-1 8-11 15-1-8-1-9l-1-8h8v-1q-4-4-12-7-10-3-21-3-9 1-14 6-3 3 0 5 2 1 2 3-2 9 0 17-1 2-7 0-8-2-18-11 6-1 6-2 9-2 10-2t1-2q-1-1-2-1-13-1-24 3l-1 1q4 10 15 16.5t26 7.5q17 2 31-3 13-5 18-14h1q0-2 2-9-2 0-8-2zm-29 17q-9 1-10 1-3 0-4-2-2-3 1-6 3-4 7-3 6 2 6 10zm144-152q-40-9-45-11-9-2-23 0-4 1-15.5 2.5T474 284h-13q-8 0-10 6h29q11-1 22-3 15-3 33 2 11 3 23 5 9 2 17-4zm-99-24q29-15 76 1-3-6-10-10-9-6-22-7-20-2-33 6-7 3-11 10zm222 128q4 11 5 12 4 12 3 18 0 1-3 14 11-5 9-23-3-19-14-21zm-168-73l1 3q6 8 15 9 3 0 5-2 5-4-1-7-8-4-20-3zm-33 1h-11q-2 0-4 1l-3 1q-2 1-2 3 0 5 4 5 10 0 16-10zm46 71q2-3 12-29-7 4-10.5 12.5T543 393zm107 9l3 5q6 6 6 9h1l2 1q2-1 2-3-1-6-7-10-1 0-6-2h-1zm-285 5q4-1 6-8-8 0-6 8zm71-300q7-12 14.5-37T461 37q-20 23-25 70zm148 11l2-3q-1-37-11-59 0 11 4 32t4 29zM376 491q3 6 10 10 10 6 26 7 29 1 51-12 6-3 15-11l4-8q1-2 0-3t-4-1q-4 4-26 8-32 7-75 10h-1zm161-14q2 9 12 17 14 10 38 16 17 4 30 2 14-3 30-16-3-4-8-4-2 0-7 .5t-8 .5q-7 1-17 0-8-1-17-3-34-6-45-12-4-3-8-1zm-213-88l-5 6q-6 13-1 25t15 5q4-3 0-4-3-1-7 0-2 0-3-2-3-4-1-12 0-2 1-5.5t1-4.5 1-8h-1z"/><glyph glyph-name="uni2708" unicode="✈" horiz-adv-x="1000" d="M990-119l-71-71q-10-10-24-10t-24 10L728-47q-10 10-10 24t10 23l4 4-67 67q-1 1-4 6-112-90-255-90-110 0-203.5 54.5t-148 148T0 393.5t54.5 204 148 148 204 54.5 204-54.5 148-148T813 394q0-143-90-255 5-3 6-4l67-67 4 4q9 10 23 10t24-10L990-71q10-10 10-24t-10-24zM406.5 643Q303 643 230 570t-73-176.5T230 217t176.5-73T583 217t73 176.5T583 570t-176.5 73z"/><glyph glyph-name="uni4EBA" unicode="人" d="M517 166q9-6 9-15 0-8 27-66 27-56 85-118 59-62 87-79l21-15v-1q-99-57-232-60-106-1-208 47-1 1-26 14 3 4 18 14 29 18 88 78 57 60 84 117 28 61 32 73 3 7 7 10t8 1zm75 600q57-11 87-22 122-45 206-147.5T989 366q22-148-42-282-24-50-72-108-8 2-23 8-31 15-87 67-55 51-89 101-31 47-49 89-15 38-27 88t-12 243zm-162-2q3-65 3-115 1-92 0-175-1-98-6-131-3-20-11-45-16-51-36-92-20-40-60-94-17-22-44-49t-49-43q-54-39-71-45l-2-1Q110 24 81 84 17 216 38.5 361.5T158 615q35 39 96 78t95 51q72 26 81 20z"/><glyph glyph-name="uni535A" unicode="博" d="M686 698q-24-11-29-32.5t13-39.5q9-8 21.5-10.5T739 613q95 0 144-56 31-35 38-58.5t7-86.5q0-57 2.5-68t15.5-19q30-17 49.5 3.5T1022 406q9 73-29.5 149T888 670q-43 25-105.5 33.5T686 698zM356 573q-111-40-226-162Q-8 264 .5 134T161-71q104-51 227-58.5T623.5-101 812 8q57 54 73.5 114t-11 109-92.5 72q-17 6-23.5 11t-3.5 10q20 51 9 84-16 48-70.5 58.5T555 449l-45-16 4 45q3 40-6 63t-33 35q-19 10-53 9t-66-12zm187-260q75-21 118-63.5t43-96.5q0-60-50-110.5T517-37q-46-15-118.5-17.5T284-45q-80 22-123.5 65T117 120q0 61 58 114 28 27 53.5 42t65.5 28q128 43 249 9zm-212-65q-104-49-104-140 0-80 77-121 31-17 79.5-16T466-10q44 23 70.5 62.5T563 134q-1 34-27 69.5T474 253q-29 12-71 10.5T331 248zm49-126q8-8 8-26 0-26-31-41t-48 2q-9 10-7.5 29t12.5 30 34 13 32-7zm318 438q-24-23-11-45.5t50-22.5q31 0 46-16.5t15-53.5q0-22 2.5-31.5T812 375q28-19 47-.5t19 63.5q0 55-35.5 92T751 571q-25 2-34.5 0T698 560z"/><glyph glyph-name="uni8C46" unicode="豆" d="M685 293H311v187h374V293zm172 439q34 0 58-23.5t24-58.5V-64q0-34-24-58t-58-24H142q-34 0-57.5 24T61-64v714q0 35 23.5 58.5T142 732h715zM183 607h633v62H183v-62zm65-64V232h500v311H248zM837 44H665l61 109-69 52q-5-12-9-23t-9.5-23-11.5-23q-17-29-31-56.5T577 44H422q-4 8-18 35.5T373 136q-7 11-12 23t-9 23-9 23l-69-52 61-109H163v-64h674v64z"/><glyph glyph-name="uni9E1F" unicode="鸟" d="M960 563q-15-32-64-73-19-15-21-44-18-346-307-480Q322-149 72-10q-8 5-8 11 105-8 189 31 46 21 74 45-5 0-15 2t-15 4q-91 20-132 105-6 11-3.5 16t15.5 3q23-2 53 3Q98 262 92 396q6-2 23.5-8.5t29.5-9 25-2.5q-61 52-73 116-13 71 22 132 59-66 111-102 111-76 250-91 13-2 18 1.5t4 17.5q-14 119 88 181 107 65 203-7 40-29 85-9 8 4 18.5 8t23.5 10 23 10q-23-62-76-98 20 0 53 9.5t39 10.5z"/><glyph glyph-name="uniE600" unicode="" horiz-adv-x="1000" d="M514-154zm-29 382L669 45l94-93q22-22 41-36.5t41.5-26.5 44-9T929-99q12 12 18 24t3.5 25-5.5 22-16.5 24.5-20 23T884 45L700 228l-91 91 91 92 184 183q26 26 39.5 52.5t10 53.5-28.5 47q-24 18-67.5-5.5T750 673l-81-79-184-183q-38-38-38-91.5t38-91.5z"/><glyph glyph-name="uniE601" unicode="" d="M339-66q-20-20-48.5-20T242-66l-96 96q-20 20-20 48.5t20 48.5l125 125 117 117q-39 24-85.5 18.5T222 348L49 175Q9 135 9 78.5T49-18l145-145q40-40 96.5-40t96.5 40L560 10q34 34 39 80.5T581 176zm636 684L830 763q-40 40-96.5 40T637 763L464 590q-34-34-39.5-80.5T443 424l242 242q20 20 48.5 20t48.5-20l96-96q20-20 20-48.5T878 473L636 231q39-24 85.5-18.5T802 252l173 173q40 40 40 96.5T975 618zM327 139l24-24q15-15 36-15t36 15l274 274q15 15 15 36t-15 36l-24 24q-15 15-36 15t-36-15L327 211q-15-15-15-36t15-36z"/><glyph glyph-name="uniE602" unicode="" d="M46 357q0 42 20.5 56.5T131 428q20 0 63-.5t91.5-.5 94.5-.5 73-.5q38-1 60 6.5t22 34.5q0 20 1.5 47.5T538 562q1 35 20 44.5t48-14.5q30-24 70-57t83-67.5 84-68 73-58.5q29-24 29.5-45.5T918 251q-29-24-68.5-55t-82-64T684 66.5 611 9q-35-28-57.5-21T532 31v53q0 15-.5 29.5T531 140q0 25-15 31.5t-41 6.5q-29 0-76 .5t-98 .5-99 .5-78 .5q-13 0-27 2.5T71.5 192 53 212.5 46 249q0 27-.5 52t.5 56z"/><glyph glyph-name="uniE603" unicode="" d="M925-42L714 414v112h46v88H264v-88h40V413L98-42q-16-37 6-71.5t63-34.5h690q41 0 63 34.5t5 71.5zM170-65l209 462v129h260V397L854-65H170zm209 286q-1 1-30.5-60.5T290 37l-30-62h504L623 269q-6-6-16-15.5T566.5 224t-59-30-64.5-5-64 32zm154 132q26 0 44.5 18.5T596 416t-18.5 44.5T533 479t-44.5-18.5T470 416t18.5-44.5T533 353zm21 311q17 0 29.5 12t12.5 29.5-12.5 30T554 748t-29.5-12.5-12.5-30 12.5-29.5 29.5-12zm-84-437q17 0 29.5 12.5T512 269t-12.5 29.5T470 311t-29.5-12.5T428 269t12.5-29.5T470 227z"/><glyph glyph-name="uniE604" unicode="" d="M892-200h-65q-29 0-50 5t-36 15.5-25.5 26.5-19.5 37q-15 38-27.5 69T647 7q-11 26-20 48H378q-7-23-17-50-8-23-21-55.5T310-121q-20-45-46-62t-59-17h-69q-44 0-59.5 19.5T79-114Q97-69 121-8t51 129.5T228 262t56 141q64 161 134 335 7 17 18 31 10 11 26.5 21t41.5 10q26 0 42.5-10.5T574 766q12-15 19-33 71-176 135-337 27-69 56-140.5t55.5-139 50-126.5T930-112q14-34 4-61t-42-27zM602 180l-95 339h-1L400 180h202z"/><glyph glyph-name="uniE605" unicode="" horiz-adv-x="1029" d="M-1 102q0 49 13 85t47 68V-51Q24-20 11.5 16T-1 102zm937 153q30-23 48.5-63.5T1003 102q0-50-14.5-85.5T936-51v306zm-119 45q19 0 38-15t19-42V-16q0-12-5.5-22.5t-13.5-19-18.5-13T817-75h-70q-26 0-43.5 16T686-16v259q0 27 19.5 42t41.5 15h70zm-572 0q29 0 47-14t18-44V-10q0-30-15.5-47T254-74h-73q-30 0-44.5 18T122-12v254q0 30 18 44t43 14h62zm254 439q79 0 149-27t122.5-76.5T853 517t30-152h-66q-25 0-45-.5t-20 .5q0 62-21 109.5T675.5 554t-80 48-96.5 16q-50 0-95-21t-79.5-56.5-55.5-81-21-94.5H116q0 83 30 152t82 118.5T350 712t149 27z"/><glyph glyph-name="uniE606" unicode="" d="M960 300H832v-448q0-27-18.5-45.5T768-212H640v384q0 27-18.5 45.5T576 236H448q-27 0-45.5-18.5T384 172v-384H256q-27 0-45.5 18.5T192-148v448H64L0 364l512 448 512-448z"/><glyph glyph-name="uniE607" unicode="" d="M66 781l1-505h94V87l183 183-29 29-113-113v131h-95v423h610V596h41v185H66zm325-232h598V43h-92v-191L705 43H391v506zm41-465h290L856-50V84h92v424H432V84z"/><glyph glyph-name="uniE608" unicode="" horiz-adv-x="1030" d="M512 896q-139 0-257-68.5T68.5 641 0 384t68.5-257T255-59.5 512-128t257 68.5T955.5 127t68.5 257-68.5 257T769 827.5 512 896zm0-959q-91 0-173.5 35.5T196 68t-95.5 142.5T65 384t35.5 173.5T196 700t142.5 95.5T512 831t173.5-35.5T828 700t95.5-142.5T959 384t-35.5-173.5T828 68 685.5-27.5 512-63zM365 567h86V182h-86v385zm172 0h107V182H537v385z"/><glyph glyph-name="uniE609" unicode="" d="M238 633q-15 15-23 34t-8 40q0 20 8 39.5t23 34.5q31 31 73.5 31t72.5-31l405-408q15-13 22-33t5.5-42-9.5-43q-9-21-24-37L384-183q-30-32-72.5-32T238-183q-15 15-22.5 34t-7.5 39 7.5 40T238-35l330 334zm0 0z"/><glyph glyph-name="uniE60A" unicode="" d="M786 633L456 299 786-35q15-15 23-34.5t8-40.5q0-20-8-39t-23-34q-31-32-73.5-32T640-183L241 218q-15 15-23.5 36.5t-10 43.5 5.5 42 22 33l405 408q30 31 72.5 31t73.5-31q15-15 23-34.5t8-39.5-8-39.5-23-34.5zm0 0z"/><glyph glyph-name="uniE60B" unicode="" d="M645-52q6 0-3.5-15t-29-33-46-33-56.5-15q-27 0-52 15t-44 33-29 33-6 15h266zm248 85q7-9 6.5-17.5T895 1t-10-9.5-12-3.5H143q-14 0-20.5 11.5T127 28q17 30 40 67t43.5 79.5 35.5 90 15 99.5q0 50 14 90t36.5 70 52 51 61.5 32q-16 26-16 54 0 41 28 69t69 28 69-28 28-69q0-14-4-27.5T588 609q34-11 64.5-32t53-52 36-71 13.5-89q0-50 15-98.5t36-92T850.5 95 893 33zM467 661q0-16 11-27.5t27-11.5h2q16 1 27 12t11 27q0 17-11 28t-28 11-28-11-11-28z"/><glyph glyph-name="uniE60C" unicode="" d="M511-107q-14 0-26 10-87 57-157 118T215 132t-74.5 100.5-46 86.5T72 389t-8.5 48.5T63 463q1 100 72.5 170.5T307 704q63 0 116.5-29.5T511 594q33 51 87 80.5T714 704q101 0 172-70.5T958 463q1-11 0-25.5t-8.5-48.5-22-69.5-45.5-86T808 133 695.5 22.5 540-95q-12-12-29-12zm216 273q44 47 75.5 95t45.5 80 21 62.5 7.5 40 .5 14.5q0 69-47.5 117T714 623q-67 0-114.5-47.5T552 462q0-17-12-28.5T511 421q-18 1-30 12.5T469 462q0 66-47.5 113.5T307 623t-114.5-47.5T145 462v-4q-1-4-.5-13.5T151 408t18-56.5 39-73.5 64.5-88.5 99-99T511-17q129 89 216 183z"/><glyph glyph-name="uniE60D" unicode="" horiz-adv-x="1000" d="M692 440q1 0 19-1-17 116-117.5 194T357 711q-97 0-179-41.5t-130-113T0 400q0-116 98-214 11-11 13.5-29t-1-36-9-35T91 59l-5-11q15 7 38.5 17.5t68.5 26 59 11.5q51-14 105-14 2 0 4.5.5t5.5.5h5q-12 37-12 72 0 75 44.5 139t121 101.5T692 440zM492.5 549q20.5 0 35-14.5t14.5-35-14.5-35-35-14.5-35 14.5-14.5 35 14.5 35 35 14.5zm-284-99q-20.5 0-35 14.5t-14.5 35 14.5 35 35 14.5 35-14.5 14.5-35-14.5-35-35-14.5zM692 416q-127 0-217.5-74.5T384 162t90.5-179.5T692-92q55 0 107 16 5 1 10 1 28 0 107-36-18 83 1 99 83 74 83 174 0 105-90.5 179.5T692 416zM584.5 212q-17.5 0-30 12.5t-12.5 30 12.5 30 30 12.5 30-12.5 12.5-30-12.5-30-30-12.5zm210 0q-17.5 0-30 12.5t-12.5 30 12.5 30 30 12.5 29.5-12.5 12-30-12-30-29.5-12.5z"/><glyph glyph-name="uniE60E" unicode="" d="M509.5-115q-101.5 0-194 39.5T156.5 31t-106 159.5T11 384t39.5 193.5 106 159.5 159 106.5 194 39.5T703 843.5 862 737t106.5-159.5T1008 384t-39.5-193.5T862 31 703-75.5 509.5-115zm0 939q-89.5 0-171-35T198 695t-93.5-140.5T70 384t34.5-170.5T198 73t140.5-94 171-35 171 35T821 73t93.5 140.5T949 384t-34.5 170.5T821 695t-140.5 94-171 35zM697 345L439 151q-19-15-33-8t-14 32v410q0 24 14 31t33-7l258-194q20-14 20-34.5T697 345z"/><glyph glyph-name="uniE60F" unicode="" d="M1015 451q0 6-.5 7t-4.5 1H700l-45 81-123 240h-23L397 540l-45-81H0v-5l63-46 178-159-40-364q0-8 3.5-9.5T226-126L519 56l293-182q9 0 12 1.5t11 9.5l-56 364 169 146zM273 102l326 268-303 53h461L475 166l293-64H273z"/><glyph glyph-name="uniE613" unicode="" horiz-adv-x="1000" d="M515 317zm-107 1v3q0 45 31.5 76.5t76 31.5 76-31.5T623 321v-7q0-45-31.5-76.5t-76-31.5-76 31.5T408 314v4zm-222-1zm-107 1v3q0 45 31.5 76.5t76 31.5 76-31.5T294 321v-7q0-45-31.5-76.5t-76-31.5-76 31.5T79 314v4zm764-1zm-107 1v3q0 45 31.5 76.5t76 31.5 76-31.5T951 321v-7q0-45-31.5-76.5t-76-31.5-76 31.5T736 314v4z"/><glyph glyph-name="uniE616" unicode="" horiz-adv-x="1000" d="M714 554H318q-17 0-28.5-11.5t-11.5-28 11.5-28T318 475h396q17 0 28.5 11.5t11.5 28-11.5 28T714 554zm0-158H318q-17 0-28.5-11.5t-11.5-28 11.5-28.5 28.5-12h396q17 0 28.5 12t11.5 28.5-11.5 28T714 396zm159 357H159q-33 0-56-23.5T80 673V-41q0-32 23-55.5t56-23.5h436q17 0 29 12l316 316q12 12 12 29v436q0 33-23 56.5T873 753zM635 18v140q0 16 11.5 27.5T675 197h140zm238 259H635q-33 0-56-23.5T556 197V-41H199q-17 0-28.5 12T159-1v635q0 16 11.5 27.5T199 673h634q17 0 28.5-11.5T873 634V277zm-476-40h-79q-17 0-28.5-11.5t-11.5-28 11.5-28T318 158h79q16 0 28 11.5t12 28-12 28-28 11.5z"/><glyph glyph-name="uniE617" unicode="" horiz-adv-x="1000" d="M487 349l-47-142h97l-46 142h-4zm294 144H519L289 651V493h-70q-44 0-74.5-31T114 388V54q0-44 30.5-74.5T219-51h562q44 0 74.5 30.5T886 54v334q0 43-30.5 74T781 493zM666 47H532v43h43l-26 77H427l-26-77h41V47H308v43h41l93 259h-41v39h174v-39h-43l96-259h38V47z"/><glyph glyph-name="uniE618" unicode="" d="M577-83h319v319H577V-83zm-448 0h319v319H129V-83zm0 447h319v319H129V364zm448 318V363h319v319H577z"/><glyph glyph-name="uniE619" unicode="" d="M512 536q-98 0-167-69t-69-167 69-167 167-69 167 69 69 167-69 167-167 69zm0-421q-76 0-130 54.5T328 300t54 130 130 54 130.5-54T697 300t-54.5-130.5T512 115zm0 456q11 0 18.5 7.5T538 597v125q0 11-7.5 18.5T512 748t-18.5-7.5T486 722V597q0-11 7.5-18.5T512 571zm0-542q-11 0-18.5-7.5T486 3v-125q0-11 7.5-18.5T512-148t18.5 7.5T538-122V3q0 11-7.5 18.5T512 29zM284 491q8-7 18.5-7t18 7.5T328 510t-7 18l-89 89q-8 7-18.5 7t-18-7.5-7.5-18 7-18.5zm456-382q-7 7-18 7t-18.5-7.5T696 90t7-18l89-89q8-7 18.5-7t18 7.5 7.5 18-7 18.5zM241 300q0 11-7.5 18.5T215 326H90q-11 0-18.5-7.5T64 300t7.5-18.5T90 274h125q11 0 18.5 7.5T241 300zm693 26H809q-11 0-18.5-7.5T783 300t7.5-18.5T809 274h125q11 0 18.5 7.5T960 300t-7.5 18.5T934 326zM284 109l-89-89q-7-8-7-18.5t7.5-18 18-7.5 18.5 7l89 89q7 7 7 18t-7.5 18.5T302 116t-18-7zm437.5 375q10.5 0 18.5 7l89 89q7 8 7 18.5t-7.5 18-18 7.5-18.5-7l-89-89q-7-7-7-18t7.5-18.5 18-7.5z"/><glyph glyph-name="uniE61A" unicode="" d="M547-116q-92 0-175.5 35.5t-144 96-96 143.5T96 333q0 148 90 268.5T418 764l54 16-16-55q-16-55-16-111 0-107 53.5-198T638 272t199-53q49 0 100 13l55 14-18-54Q928 54 810.5-31T547-116zM384 685q-102-47-164-143t-62-209q0-105 52-194T351.5-2 547-54q111 0 204.5 58T894 161q-29-4-57-4-93 0-178 36.5T512.5 291t-98 145.5T378 614q0 36 6 71z"/><glyph glyph-name="uniE61C" unicode="" horiz-adv-x="1000" d="M76 316q0-107 48.5-200.5T257-39q29 131 98 233 31 46 68 84-9 19-9 40 0 41 29 70t70 29 70-29 29-70-29-70-70-29q-31 0-56 18-22-24-59-79-69-102-94-227 98-54 211-54 89 0 170.5 35T826 5.5t93.5 140 34.5 171T919.5 487 826 627t-140.5 93.5T515 755t-170.5-34.5-140-93.5T111 487 76 316zm433 295q124 0 211.5-87.5T808 312q0-123-87.5-210.5T509 14q-34 0-67 7-11 2-17 11.5T422 53q2 11 11.5 16.5T453 73q27-6 56-6 102 0 174 72t72 173.5T683 486t-174 72-174-72-72-174q0-59 27-112 5-10 1.5-20.5T278 165q-10-6-20-2.5T243 176q-33 63-33 136 0 124 87.5 211.5T509 611z"/><glyph glyph-name="uniE61E" unicode="" horiz-adv-x="1000" d="M515.5 128q68.5 0 117 48.5T681 294v325q0 69-48.5 117.5t-117 48.5-117-48.5T350 619V294q0-69 48.5-117.5t117-48.5zM778 409q-7 0-12.5-5t-5.5-13V288q0-101-72-173.5T515 42t-173 72.5T270 288v103q0 8-5 13t-12.5 5-13-5-5.5-13V288q0-111 76.5-192.5T497 7v-123H343q-7 0-12.5-5.5t-5.5-13 5.5-12.5 12.5-5h344q8 0 13 5t5 12.5-5 13-13 5.5H533V7q110 7 186.5 88.5T796 288v103q0 8-5.5 13t-12.5 5z"/><glyph glyph-name="uniE61F" unicode="" horiz-adv-x="1000" d="M351 582q16 0 30-6t24.5-16 16-24 5.5-31q0-15-5.5-28.5t-16-24T381 436t-29.5-6-29.5 6-24.5 16.5-16.5 24-6 28.5q0 17 6 31t16.5 24 24.5 16 29 6zm489 130q18 0 31-13t13-30V17q0-17-13-30t-31-13H188q-18 0-30.5 13T145 17v652q0 17 12.5 30t30.5 13h652zm-22-109q0 18-12.5 31T774 647H254q-19 0-31.5-13T210 603V343q0-21 11-40.5t31-34.5 48-24 62-10q50 0 80.5 14t53 35.5 42 46.5 46.5 47 66.5 37T753 430q11 1 13 .5t5-.5 12-.5 35 .5v173zm0 0z"/><glyph glyph-name="uniE620" unicode="" d="M512.5 747Q422 747 339 712t-142.5-95-95-142.5T66 301t35.5-173.5 95-142.5T339-110.5 512.5-146t173 35.5T828-15t95.5 142.5T959 301t-35.5 173.5T828 617t-142.5 95-173 35zm0-826q-103.5 0-191 50.5T183 110t-51 191 51 190.5T321.5 630t191 51 191-51T842 491.5 893 301t-51-191T703.5-28.5 512.5-79zM701 451v41h-58v-41h-43v41h-58v-84h101v-58H542v-43h236v43h-77v58h77v43h-77zm19-174H515v131h-85v41h85v43H245v-43h81v-41h-81V107h58v258h23V107h189v127h205v-82H542v-43h236v168h-58zm-263 88v-88h-27v88h27zm-92 84h26v-41h-26v41zm92-299h-92v215h26V234h66v-84z"/><glyph glyph-name="uniE621" unicode="" d="M489 575q-5 15-19 22t-29 2q-80-26-143.5-64.5T194 452t-63.5-81T92 295q-26-46-26-99 0-82 58-140T264-2t140.5 58T463 196q0 72-45 126.5T304 391q-14 5-18 14t1 18 9 14 8 9q68 51 161 81 15 5 22 19t2 29zm468 0q-5 15-19 22t-29 2q-80-26-143.5-64.5T662 452t-63.5-81-38.5-76q-26-46-26-99 0-82 58-140T732-2t140 58 58 140q0 72-45 126.5T772 391q-14 5-18 14t1 18 8.5 14 7.5 9q69 51 161 81 15 5 22.5 19t2.5 29z"/><glyph glyph-name="uniE622" unicode="" d="M332 513.5Q315 530 291.5 530T252 513L78 340q-16-17-16-40.5T78 260L252 86q16-17 39.5-17T332 86t17 40.5-17 39.5L199 300l133 133q17 17 17 40.5t-17 40zM946 340L773 513q-17 17-40.5 17t-40-16.5-16.5-40 17-40.5l133-133-133-134q-17-16-17-39.5T692.5 86t40-17T773 86l173 174q17 16 17 39.5T946 340zM599 526.5q-22 8.5-43.5-1T525 494L392 147q-9-22 .5-43.5T424 73q10-4 21-4 17 0 31.5 10t21.5 27l133 347q9 22-.5 43.5t-31.5 30z"/><glyph glyph-name="uniE624" unicode="" d="M286 28l-45 45q-10 9-10 22.5t10 22.5l181 181-181 182q-10 9-10 22.5t10 22.5l45 45q9 10 22.5 10t22.5-10l182-181 181 181q9 10 22.5 10t22.5-10l45-45q10-9 10-22.5T784 481L603 299l181-181q10-9 10-22.5T784 73l-45-45q-9-10-22.5-10T694 28L513 209 331 28q-9-10-22.5-10T286 28z"/><glyph glyph-name="uniFF31" unicode="Ｑ" d="M981 106q-6 34-19.5 67.5t-28.5 57-29.5 42T880 300l-9 9q3 33 1 56.5t-7.5 38-11.5 23-11 10.5l-5 3q-2 71-20.5 127.5t-44 91T712 718t-64 36.5-60.5 17.5-43.5 6.5-19 .5q-8 0-19.5-.5t-43-6.5-60.5-17.5-64-36.5-61-59.5-44.5-91T212 440q-2 0-4.5-2.5T197 426t-12-22.5-8-38 1-56.5l-9-9q-6-6-22.5-26.5t-30.5-43T88.5 174 69 106q-1-4-1-11.5T69 69t4-31 10-23.5 17.5-9T129 25t41 55q26-69 72-131-4-1-9.5-3.5t-19.5-11T189-85t-17.5-29-5.5-38q0-4 1-9.5t10-19 25.5-24 53.5-18 87-6.5q5 1 14 2t33 5.5 44 11 41.5 18.5 32.5 27h34q16-24 57.5-40t74.5-20l32-4q51-1 87.5 6.5t53 17.5 26 24.5T883-161t1 9q2 20-5.5 38t-19 29-23 19.5T816-54l-8 3q20 28 38 61t25.5 51 7.5 19q23-37 41-55.5T948.5 6t18 8.5 10 24 4 30.5.5 26v11z"/></font>
</defs>
</svg>
