<?xml version="1.0" encoding="UTF-8" standalone="no"?><svg xmlns="http://www.w3.org/2000/svg" xmlns:xlink="http://www.w3.org/1999/xlink" contentScriptType="application/ecmascript" contentStyleType="text/css" height="412px" preserveAspectRatio="none" style="width:541px;height:412px;" version="1.1" viewBox="0 0 541 412" width="541px" zoomAndPan="magnify"><defs><filter height="300%" id="f1h2usf0eh3ydr" width="300%" x="-1" y="-1"><feGaussianBlur result="blurOut" stdDeviation="2.0"/><feColorMatrix in="blurOut" result="blurOut2" type="matrix" values="0 0 0 0 0 0 0 0 0 0 0 0 0 0 0 0 0 0 .4 0"/><feOffset dx="4.0" dy="4.0" in="blurOut2" result="blurOut3"/><feBlend in="SourceGraphic" in2="blurOut3" mode="normal"/></filter></defs><g><ellipse cx="163.5" cy="41" fill="#FF6600" filter="url(#f1h2usf0eh3ydr)" rx="8" ry="8" style="stroke: #A80036; stroke-width: 2.0;"/><path d="M163.5,49 L163.5,76 M150.5,57 L176.5,57 M163.5,76 L150.5,91 M163.5,76 L176.5,91 " fill="none" filter="url(#f1h2usf0eh3ydr)" style="stroke: #A80036; stroke-width: 2.0;"/><text fill="#000000" font-family="sans-serif" font-size="14" lengthAdjust="spacingAndGlyphs" textLength="37" x="145" y="110.9951">角色A</text><ellipse cx="163.5" cy="185" fill="#FEFECE" filter="url(#f1h2usf0eh3ydr)" rx="8" ry="8" style="stroke: #A80036; stroke-width: 2.0;"/><path d="M163.5,193 L163.5,220 M150.5,201 L176.5,201 M163.5,220 L150.5,235 M163.5,220 L176.5,235 " fill="none" filter="url(#f1h2usf0eh3ydr)" style="stroke: #A80036; stroke-width: 2.0;"/><text fill="#000000" font-family="sans-serif" font-size="14" lengthAdjust="spacingAndGlyphs" textLength="38" x="144.5" y="254.9951">角色B</text><ellipse cx="162.5" cy="329" fill="#FEFECE" filter="url(#f1h2usf0eh3ydr)" rx="8" ry="8" style="stroke: #A80036; stroke-width: 2.0;"/><path d="M162.5,337 L162.5,364 M149.5,345 L175.5,345 M162.5,364 L149.5,379 M162.5,364 L175.5,379 " fill="none" filter="url(#f1h2usf0eh3ydr)" style="stroke: #A80036; stroke-width: 2.0;"/><text fill="#000000" font-family="sans-serif" font-size="14" lengthAdjust="spacingAndGlyphs" textLength="38" x="143.5" y="398.9951">角色C</text><path d="M426,60 L426,85.1328 L529,85.1328 L529,70 L519,60 L426,60 " fill="#FBFB77" filter="url(#f1h2usf0eh3ydr)" style="stroke: #A80036; stroke-width: 1.0;"/><path d="M519,60 L519,70 L529,70 L519,60 " fill="#FBFB77" style="stroke: #A80036; stroke-width: 1.0;"/><text fill="#000000" font-family="sans-serif" font-size="13" lengthAdjust="spacingAndGlyphs" textLength="82" x="432" y="77.0669">这是 A 的注释</text><path d="M426,348 L426,373.1328 L529,373.1328 L529,358 L519,348 L426,348 " fill="#FBFB77" filter="url(#f1h2usf0eh3ydr)" style="stroke: #A80036; stroke-width: 1.0;"/><path d="M519,348 L519,358 L529,358 L519,348 " fill="#FBFB77" style="stroke: #A80036; stroke-width: 1.0;"/><text fill="#000000" font-family="sans-serif" font-size="13" lengthAdjust="spacingAndGlyphs" textLength="82" x="432" y="365.0669">这是 C 的注释</text><path d="M235.5,204 L235.5,229.1328 L447.5,229.1328 L447.5,214 L437.5,204 L235.5,204 " fill="#FBFB77" filter="url(#f1h2usf0eh3ydr)" style="stroke: #A80036; stroke-width: 1.0;"/><path d="M437.5,204 L437.5,214 L447.5,214 L437.5,204 " fill="#FBFB77" style="stroke: #A80036; stroke-width: 1.0;"/><text fill="#000000" font-family="sans-serif" font-size="13" lengthAdjust="spacingAndGlyphs" textLength="191" x="241.5" y="221.0669">这是 A 和 C 之间注释的关系 Rac</text><ellipse cx="341.4619" cy="72.5236" fill="#FEFECE" filter="url(#f1h2usf0eh3ydr)" rx="48.9619" ry="14.5236" style="stroke: #A80036; stroke-width: 1.5;"/><text fill="#000000" font-family="sans-serif" font-size="14" lengthAdjust="spacingAndGlyphs" textLength="65" x="308.9619" y="77.1721">AContent</text><path d="M6,204 L6,229.1328 A0,0 0 0 0 6,229.1328 L109,229.1328 A0,0 0 0 0 109,229.1328 L109,222 L144.4305,216.5 L109,214 L109,214 L99,204 L6,204 A0,0 0 0 0 6,204 " fill="#FBFB77" filter="url(#f1h2usf0eh3ydr)" style="stroke: #A80036; stroke-width: 1.0;"/><path d="M99,204 L99,214 L109,214 L99,204 " fill="#FBFB77" style="stroke: #A80036; stroke-width: 1.0;"/><text fill="#000000" font-family="sans-serif" font-size="13" lengthAdjust="spacingAndGlyphs" textLength="82" x="12" y="221.0669">这是 B 的发言</text><ellipse cx="341.669" cy="360.5236" fill="#FEFECE" filter="url(#f1h2usf0eh3ydr)" rx="49.669" ry="14.5236" style="stroke: #A80036; stroke-width: 1.5;"/><text fill="#000000" font-family="sans-serif" font-size="14" lengthAdjust="spacingAndGlyphs" textLength="66" x="308.669" y="365.1721">CContent</text><path d="M182.4111,61.267 C206.9231,47.4228 251.4589,24.6675 293,16 C335.6373,7.1037 349.2545,3.5743 391,16 C419.7101,24.5457 447.7727,45.9856 463.815,59.8602 " fill="none" id="A-&gt;Na" style="stroke: #A80036; stroke-width: 1.0;"/><path d="M182.2127,72.5 C206.8845,72.5 251.3413,72.5 287.0305,72.5 " fill="none" id="A-&gt;AContent" style="stroke: #A80036; stroke-width: 1.0;"/><polygon fill="#A80036" points="292.2291,72.5,283.2291,68.5,287.2291,72.5,283.2291,76.5,292.2291,72.5" style="stroke: #A80036; stroke-width: 1.0;"/><text fill="#000000" font-family="sans-serif" font-size="13" lengthAdjust="spacingAndGlyphs" textLength="74" x="200.25" y="65.5669">A发言的标注</text><path d="M163.5,134.3211 C163.5,148.0408 163.5,162.2637 163.5,174.9428 " fill="none" id="A&lt;-B" style="stroke: #A80036; stroke-width: 1.0;"/><polygon fill="none" points="156.5001,134.1508,163.5,114.1508,170.5001,134.1507,156.5001,134.1508" style="stroke: #A80036; stroke-width: 1.0;"/><path d="M181.7669,345.6098 C205.9438,327.957 249.4203,299.541 292,288.5 C334.5914,277.456 349.6238,273.5331 391,288.5 C423.7054,300.3305 452.7491,330.5183 467.4114,347.8157 " fill="none" id="C-&gt;Nc" style="stroke: #A80036; stroke-width: 1.0;"/><path d="M181.6561,360.5 C206.4992,360.5 250.8763,360.5 286.5785,360.5 " fill="none" id="C-&gt;CContent" style="stroke: #A80036; stroke-width: 1.0;"/><polygon fill="#A80036" points="291.7797,360.5,282.7797,356.5,286.7797,360.5,282.7797,364.5,291.7797,360.5" style="stroke: #A80036; stroke-width: 1.0;"/><text fill="#000000" font-family="sans-serif" font-size="13" lengthAdjust="spacingAndGlyphs" textLength="74" x="199.75" y="353.5669">C发言的标注</text><path d="M341.5,87.0999 C341.5,115.4147 341.5,177.3379 341.5,203.9434 " fill="none" id="AContent-Rac" style="stroke: #A80036; stroke-width: 1.0; stroke-dasharray: 7.0,7.0;"/><path d="M341.5,229.0271 C341.5,255.5766 341.5,317.3892 341.5,345.7725 " fill="none" id="Rac-CContent" style="stroke: #A80036; stroke-width: 1.0; stroke-dasharray: 7.0,7.0;"/></g></svg>