<?xml version="1.0" encoding="UTF-8" standalone="no"?><svg xmlns="http://www.w3.org/2000/svg" xmlns:xlink="http://www.w3.org/1999/xlink" contentScriptType="application/ecmascript" contentStyleType="text/css" height="306px" preserveAspectRatio="none" style="width:307px;height:306px;" version="1.1" viewBox="0 0 307 306" width="307px" zoomAndPan="magnify"><defs><filter height="300%" id="fycsxvw7vf6um" width="300%" x="-1" y="-1"><feGaussianBlur result="blurOut" stdDeviation="2.0"/><feColorMatrix in="blurOut" result="blurOut2" type="matrix" values="0 0 0 0 0 0 0 0 0 0 0 0 0 0 0 0 0 0 .4 0"/><feOffset dx="4.0" dy="4.0" in="blurOut2" result="blurOut3"/><feBlend in="SourceGraphic" in2="blurOut3" mode="normal"/></filter></defs><g><line style="stroke: #A80036; stroke-width: 1.0;" x1="43" x2="43" y1="65.2969" y2="153.5625"/><line style="stroke: #A80036; stroke-width: 1.0; stroke-dasharray: 1.0,4.0;" x1="43" x2="43" y1="153.5625" y2="194.3672"/><line style="stroke: #A80036; stroke-width: 1.0;" x1="43" x2="43" y1="194.3672" y2="233.5"/><line style="stroke: #A80036; stroke-width: 1.0;" x1="123" x2="123" y1="65.2969" y2="153.5625"/><line style="stroke: #A80036; stroke-width: 1.0; stroke-dasharray: 1.0,4.0;" x1="123" x2="123" y1="153.5625" y2="194.3672"/><line style="stroke: #A80036; stroke-width: 1.0;" x1="123" x2="123" y1="194.3672" y2="233.5"/><line style="stroke: #A80036; stroke-width: 1.0;" x1="196" x2="196" y1="65.2969" y2="153.5625"/><line style="stroke: #A80036; stroke-width: 1.0; stroke-dasharray: 1.0,4.0;" x1="196" x2="196" y1="153.5625" y2="194.3672"/><line style="stroke: #A80036; stroke-width: 1.0;" x1="196" x2="196" y1="194.3672" y2="233.5"/><rect fill="#FEFECE" filter="url(#fycsxvw7vf6um)" height="30.2969" style="stroke: #A80036; stroke-width: 1.5;" width="66" x="8" y="30"/><text fill="#000000" font-family="sans-serif" font-size="14" lengthAdjust="spacingAndGlyphs" textLength="52" x="15" y="49.9951">参与者B</text><rect fill="#FEFECE" filter="url(#fycsxvw7vf6um)" height="30.2969" style="stroke: #A80036; stroke-width: 1.5;" width="66" x="8" y="232.5"/><text fill="#000000" font-family="sans-serif" font-size="14" lengthAdjust="spacingAndGlyphs" textLength="52" x="15" y="252.4951">参与者B</text><rect fill="#FEFECE" filter="url(#fycsxvw7vf6um)" height="30.2969" style="stroke: #A80036; stroke-width: 1.5;" width="66" x="88" y="30"/><text fill="#000000" font-family="sans-serif" font-size="14" lengthAdjust="spacingAndGlyphs" textLength="52" x="95" y="49.9951">参与者C</text><rect fill="#FEFECE" filter="url(#fycsxvw7vf6um)" height="30.2969" style="stroke: #A80036; stroke-width: 1.5;" width="66" x="88" y="232.5"/><text fill="#000000" font-family="sans-serif" font-size="14" lengthAdjust="spacingAndGlyphs" textLength="52" x="95" y="252.4951">参与者C</text><text fill="#000000" font-family="sans-serif" font-size="14" lengthAdjust="spacingAndGlyphs" textLength="51" x="168" y="61.9951">参与者A</text><path d="M178.5,13 C178.5,3 196.5,3 196.5,3 C196.5,3 214.5,3 214.5,13 L214.5,39 C214.5,49 196.5,49 196.5,49 C196.5,49 178.5,49 178.5,39 L178.5,13 " fill="#FF6600" filter="url(#fycsxvw7vf6um)" style="stroke: #000000; stroke-width: 1.5;"/><path d="M178.5,13 C178.5,23 196.5,23 196.5,23 C196.5,23 214.5,23 214.5,13 " fill="none" style="stroke: #000000; stroke-width: 1.5;"/><text fill="#000000" font-family="sans-serif" font-size="14" lengthAdjust="spacingAndGlyphs" textLength="51" x="168" y="245.4951">参与者A</text><path d="M178.5,258.7969 C178.5,248.7969 196.5,248.7969 196.5,248.7969 C196.5,248.7969 214.5,248.7969 214.5,258.7969 L214.5,284.7969 C214.5,294.7969 196.5,294.7969 196.5,294.7969 C196.5,294.7969 178.5,294.7969 178.5,284.7969 L178.5,258.7969 " fill="#FF6600" filter="url(#fycsxvw7vf6um)" style="stroke: #000000; stroke-width: 1.5;"/><path d="M178.5,258.7969 C178.5,268.7969 196.5,268.7969 196.5,268.7969 C196.5,268.7969 214.5,268.7969 214.5,258.7969 " fill="none" style="stroke: #000000; stroke-width: 1.5;"/><polygon fill="#A80036" points="54,97.4297,44,101.4297,54,105.4297,50,101.4297" style="stroke: #A80036; stroke-width: 1.0;"/><line style="stroke: #A80036; stroke-width: 1.0; stroke-dasharray: 2.0,2.0;" x1="48" x2="195.5" y1="101.4297" y2="101.4297"/><text fill="#000000" font-family="sans-serif" font-size="13" lengthAdjust="spacingAndGlyphs" textLength="34" x="60" y="96.3638">消息1</text><path d="M201,80.2969 L201,105.2969 L295,105.2969 L295,90.2969 L285,80.2969 L201,80.2969 " fill="#FBFB77" filter="url(#fycsxvw7vf6um)" style="stroke: #A80036; stroke-width: 1.0;"/><path d="M285,80.2969 L285,90.2969 L295,90.2969 L285,80.2969 " fill="#FBFB77" style="stroke: #A80036; stroke-width: 1.0;"/><text fill="#000000" font-family="sans-serif" font-size="13" lengthAdjust="spacingAndGlyphs" textLength="73" x="207" y="97.3638">消息1的注释</text><polygon fill="#A80036" points="134,136.5625,124,140.5625,134,144.5625,130,140.5625" style="stroke: #A80036; stroke-width: 1.0;"/><line style="stroke: #A80036; stroke-width: 1.0; stroke-dasharray: 2.0,2.0;" x1="128" x2="195.5" y1="140.5625" y2="140.5625"/><text fill="#000000" font-family="sans-serif" font-size="13" lengthAdjust="spacingAndGlyphs" textLength="34" x="140" y="135.4966">消息3</text><path d="M201,119.4297 L201,144.4297 L295,144.4297 L295,129.4297 L285,119.4297 L201,119.4297 " fill="#FBFB77" filter="url(#fycsxvw7vf6um)" style="stroke: #A80036; stroke-width: 1.0;"/><path d="M285,119.4297 L285,129.4297 L295,129.4297 L285,119.4297 " fill="#FBFB77" style="stroke: #A80036; stroke-width: 1.0;"/><text fill="#000000" font-family="sans-serif" font-size="13" lengthAdjust="spacingAndGlyphs" textLength="73" x="207" y="136.4966">消息3的注释</text><text fill="#000000" font-family="sans-serif" font-size="11" lengthAdjust="spacingAndGlyphs" textLength="44" x="97.75" y="177.7729">消息延迟</text><polygon fill="#A80036" points="184.5,211.5,194.5,215.5,184.5,219.5,188.5,215.5" style="stroke: #A80036; stroke-width: 1.0;"/><line style="stroke: #A80036; stroke-width: 1.0;" x1="43" x2="190.5" y1="215.5" y2="215.5"/><text fill="#000000" font-family="sans-serif" font-size="13" lengthAdjust="spacingAndGlyphs" textLength="34" x="50" y="210.4341">消息2</text></g></svg>