<?xml version="1.0" encoding="UTF-8" standalone="no"?><svg xmlns="http://www.w3.org/2000/svg" xmlns:xlink="http://www.w3.org/1999/xlink" contentScriptType="application/ecmascript" contentStyleType="text/css" height="425px" preserveAspectRatio="none" style="width:380px;height:425px;" version="1.1" viewBox="0 0 380 425" width="380px" zoomAndPan="magnify"><defs><filter height="300%" id="fwxesdiz5r8tv" width="300%" x="-1" y="-1"><feGaussianBlur result="blurOut" stdDeviation="2.0"/><feColorMatrix in="blurOut" result="blurOut2" type="matrix" values="0 0 0 0 0 0 0 0 0 0 0 0 0 0 0 0 0 0 .4 0"/><feOffset dx="4.0" dy="4.0" in="blurOut2" result="blurOut3"/><feBlend in="SourceGraphic" in2="blurOut3" mode="normal"/></filter></defs><g><line style="stroke: #A80036; stroke-width: 1.0;" x1="43" x2="43" y1="65.2969" y2="271.9609"/><line style="stroke: #A80036; stroke-width: 1.0; stroke-dasharray: 1.0,4.0;" x1="43" x2="43" y1="271.9609" y2="312.7656"/><line style="stroke: #A80036; stroke-width: 1.0;" x1="43" x2="43" y1="312.7656" y2="351.8984"/><line style="stroke: #A80036; stroke-width: 1.0;" x1="137" x2="137" y1="65.2969" y2="271.9609"/><line style="stroke: #A80036; stroke-width: 1.0; stroke-dasharray: 1.0,4.0;" x1="137" x2="137" y1="271.9609" y2="312.7656"/><line style="stroke: #A80036; stroke-width: 1.0;" x1="137" x2="137" y1="312.7656" y2="351.8984"/><line style="stroke: #A80036; stroke-width: 1.0;" x1="254.5" x2="254.5" y1="65.2969" y2="271.9609"/><line style="stroke: #A80036; stroke-width: 1.0; stroke-dasharray: 1.0,4.0;" x1="254.5" x2="254.5" y1="271.9609" y2="312.7656"/><line style="stroke: #A80036; stroke-width: 1.0;" x1="254.5" x2="254.5" y1="312.7656" y2="351.8984"/><rect fill="#FEFECE" filter="url(#fwxesdiz5r8tv)" height="30.2969" style="stroke: #A80036; stroke-width: 1.5;" width="66" x="8" y="30"/><text fill="#000000" font-family="sans-serif" font-size="14" lengthAdjust="spacingAndGlyphs" textLength="52" x="15" y="49.9951">参与者B</text><rect fill="#FEFECE" filter="url(#fwxesdiz5r8tv)" height="30.2969" style="stroke: #A80036; stroke-width: 1.5;" width="66" x="8" y="350.8984"/><text fill="#000000" font-family="sans-serif" font-size="14" lengthAdjust="spacingAndGlyphs" textLength="52" x="15" y="370.8936">参与者B</text><rect fill="#FEFECE" filter="url(#fwxesdiz5r8tv)" height="36" style="stroke: #A80036; stroke-width: 1.5;" width="94" x="88" y="24.2969"/><ellipse cx="106" cy="42.2969" fill="#FF6600" rx="11" ry="11" style="stroke: #A80036; stroke-width: 1.0;"/><path d="M108.9688,47.9375 Q108.3906,48.2344 107.75,48.3828 Q107.1094,48.5313 106.4063,48.5313 Q103.9063,48.5313 102.5859,46.8828 Q101.2656,45.2344 101.2656,42.1094 Q101.2656,38.9844 102.5859,37.3281 Q103.9063,35.6719 106.4063,35.6719 Q107.1094,35.6719 107.7578,35.8281 Q108.4063,35.9844 108.9688,36.2813 L108.9688,39 Q108.3438,38.4219 107.75,38.1484 Q107.1563,37.875 106.5313,37.875 Q105.1875,37.875 104.5,38.9453 Q103.8125,40.0156 103.8125,42.1094 Q103.8125,44.2031 104.5,45.2734 Q105.1875,46.3438 106.5313,46.3438 Q107.1563,46.3438 107.75,46.0703 Q108.3438,45.7969 108.9688,45.2188 L108.9688,47.9375 Z "/><text fill="#000000" font-family="sans-serif" font-size="14" lengthAdjust="spacingAndGlyphs" textLength="52" x="123" y="45.2969">参与者C</text><rect fill="#FEFECE" filter="url(#fwxesdiz5r8tv)" height="36" style="stroke: #A80036; stroke-width: 1.5;" width="94" x="88" y="350.8984"/><ellipse cx="106" cy="368.8984" fill="#FF6600" rx="11" ry="11" style="stroke: #A80036; stroke-width: 1.0;"/><path d="M108.9688,374.5391 Q108.3906,374.8359 107.75,374.9844 Q107.1094,375.1328 106.4063,375.1328 Q103.9063,375.1328 102.5859,373.4844 Q101.2656,371.8359 101.2656,368.7109 Q101.2656,365.5859 102.5859,363.9297 Q103.9063,362.2734 106.4063,362.2734 Q107.1094,362.2734 107.7578,362.4297 Q108.4063,362.5859 108.9688,362.8828 L108.9688,365.6016 Q108.3438,365.0234 107.75,364.75 Q107.1563,364.4766 106.5313,364.4766 Q105.1875,364.4766 104.5,365.5469 Q103.8125,366.6172 103.8125,368.7109 Q103.8125,370.8047 104.5,371.875 Q105.1875,372.9453 106.5313,372.9453 Q107.1563,372.9453 107.75,372.6719 Q108.3438,372.3984 108.9688,371.8203 L108.9688,374.5391 Z "/><text fill="#000000" font-family="sans-serif" font-size="14" lengthAdjust="spacingAndGlyphs" textLength="52" x="123" y="371.8984">参与者C</text><text fill="#000000" font-family="sans-serif" font-size="14" lengthAdjust="spacingAndGlyphs" textLength="51" x="226.5" y="61.9951">参与者A</text><path d="M237,13 C237,3 255,3 255,3 C255,3 273,3 273,13 L273,39 C273,49 255,49 255,49 C255,49 237,49 237,39 L237,13 " fill="#FF6600" filter="url(#fwxesdiz5r8tv)" style="stroke: #000000; stroke-width: 1.5;"/><path d="M237,13 C237,23 255,23 255,23 C255,23 273,23 273,13 " fill="none" style="stroke: #000000; stroke-width: 1.5;"/><text fill="#000000" font-family="sans-serif" font-size="14" lengthAdjust="spacingAndGlyphs" textLength="51" x="226.5" y="363.8936">参与者A</text><path d="M237,377.1953 C237,367.1953 255,367.1953 255,367.1953 C255,367.1953 273,367.1953 273,377.1953 L273,403.1953 C273,413.1953 255,413.1953 255,413.1953 C255,413.1953 237,413.1953 237,403.1953 L237,377.1953 " fill="#FF6600" filter="url(#fwxesdiz5r8tv)" style="stroke: #000000; stroke-width: 1.5;"/><path d="M237,377.1953 C237,387.1953 255,387.1953 255,387.1953 C255,387.1953 273,387.1953 273,377.1953 " fill="none" style="stroke: #000000; stroke-width: 1.5;"/><rect fill="#EEEEEE" filter="url(#fwxesdiz5r8tv)" height="3" style="stroke: #EEEEEE; stroke-width: 1.0;" width="365" x="3" y="95.8633"/><line style="stroke: #000000; stroke-width: 1.0;" x1="3" x2="368" y1="95.8633" y2="95.8633"/><line style="stroke: #000000; stroke-width: 1.0;" x1="3" x2="368" y1="98.8633" y2="98.8633"/><rect fill="#EEEEEE" filter="url(#fwxesdiz5r8tv)" height="23.1328" style="stroke: #000000; stroke-width: 2.0;" width="56" x="157.5" y="85.2969"/><text fill="#000000" font-family="sans-serif" font-size="13" font-weight="bold" lengthAdjust="spacingAndGlyphs" textLength="37" x="163.5" y="101.3638">分组1</text><polygon fill="#A80036" points="54,135.5625,44,139.5625,54,143.5625,50,139.5625" style="stroke: #A80036; stroke-width: 1.0;"/><line style="stroke: #A80036; stroke-width: 1.0; stroke-dasharray: 2.0,2.0;" x1="48" x2="254" y1="139.5625" y2="139.5625"/><text fill="#000000" font-family="sans-serif" font-size="13" font-weight="bold" lengthAdjust="spacingAndGlyphs" textLength="9" x="60" y="134.4966">1</text><text fill="#000000" font-family="sans-serif" font-size="13" lengthAdjust="spacingAndGlyphs" textLength="34" x="73" y="134.4966">消息1</text><line style="stroke: #A80036; stroke-width: 1.0;" x1="137" x2="179" y1="168.6953" y2="168.6953"/><line style="stroke: #A80036; stroke-width: 1.0;" x1="179" x2="179" y1="168.6953" y2="181.6953"/><line style="stroke: #A80036; stroke-width: 1.0;" x1="138" x2="179" y1="181.6953" y2="181.6953"/><polygon fill="#A80036" points="148,177.6953,138,181.6953,148,185.6953,144,181.6953" style="stroke: #A80036; stroke-width: 1.0;"/><text fill="#000000" font-family="sans-serif" font-size="13" font-weight="bold" lengthAdjust="spacingAndGlyphs" textLength="9" x="144" y="163.6294">2</text><text fill="#000000" font-family="sans-serif" font-size="13" lengthAdjust="spacingAndGlyphs" textLength="91" x="157" y="163.6294">给自己发个消息</text><path d="M260,154.0625 L260,179.0625 L354,179.0625 L354,164.0625 L344,154.0625 L260,154.0625 " fill="#FBFB77" filter="url(#fwxesdiz5r8tv)" style="stroke: #A80036; stroke-width: 1.0;"/><path d="M344,154.0625 L344,164.0625 L354,164.0625 L344,154.0625 " fill="#FBFB77" style="stroke: #A80036; stroke-width: 1.0;"/><text fill="#000000" font-family="sans-serif" font-size="13" lengthAdjust="spacingAndGlyphs" textLength="73" x="266" y="171.1294">消息1的注释</text><rect fill="#EEEEEE" filter="url(#fwxesdiz5r8tv)" height="3" style="stroke: #EEEEEE; stroke-width: 1.0;" width="365" x="3" y="210.2617"/><line style="stroke: #000000; stroke-width: 1.0;" x1="3" x2="368" y1="210.2617" y2="210.2617"/><line style="stroke: #000000; stroke-width: 1.0;" x1="3" x2="368" y1="213.2617" y2="213.2617"/><rect fill="#EEEEEE" filter="url(#fwxesdiz5r8tv)" height="23.1328" style="stroke: #000000; stroke-width: 2.0;" width="56" x="157.5" y="199.6953"/><text fill="#000000" font-family="sans-serif" font-size="13" font-weight="bold" lengthAdjust="spacingAndGlyphs" textLength="37" x="163.5" y="215.7622">分组2</text><polygon fill="#A80036" points="148,254.9609,138,258.9609,148,262.9609,144,258.9609" style="stroke: #A80036; stroke-width: 1.0;"/><line style="stroke: #A80036; stroke-width: 1.0; stroke-dasharray: 2.0,2.0;" x1="142" x2="254" y1="258.9609" y2="258.9609"/><text fill="#000000" font-family="sans-serif" font-size="13" font-weight="bold" lengthAdjust="spacingAndGlyphs" textLength="9" x="154" y="253.895">3</text><text fill="#000000" font-family="sans-serif" font-size="13" lengthAdjust="spacingAndGlyphs" textLength="34" x="167" y="253.895">消息3</text><path d="M260,237.8281 L260,262.8281 L354,262.8281 L354,247.8281 L344,237.8281 L260,237.8281 " fill="#FBFB77" filter="url(#fwxesdiz5r8tv)" style="stroke: #A80036; stroke-width: 1.0;"/><path d="M344,237.8281 L344,247.8281 L354,247.8281 L344,237.8281 " fill="#FBFB77" style="stroke: #A80036; stroke-width: 1.0;"/><text fill="#000000" font-family="sans-serif" font-size="13" lengthAdjust="spacingAndGlyphs" textLength="73" x="266" y="254.895">消息3的注释</text><text fill="#000000" font-family="sans-serif" font-size="11" lengthAdjust="spacingAndGlyphs" textLength="44" x="127" y="296.1714">消息延迟</text><polygon fill="#A80036" points="243,329.8984,253,333.8984,243,337.8984,247,333.8984" style="stroke: #A80036; stroke-width: 1.0;"/><line style="stroke: #A80036; stroke-width: 1.0;" x1="43" x2="249" y1="333.8984" y2="333.8984"/><text fill="#000000" font-family="sans-serif" font-size="13" font-weight="bold" lengthAdjust="spacingAndGlyphs" textLength="9" x="50" y="328.8325">4</text><text fill="#000000" font-family="sans-serif" font-size="13" lengthAdjust="spacingAndGlyphs" textLength="34" x="63" y="328.8325">消息2</text></g></svg>