<?xml version="1.0" encoding="UTF-8" standalone="no"?><svg xmlns="http://www.w3.org/2000/svg" xmlns:xlink="http://www.w3.org/1999/xlink" contentScriptType="application/ecmascript" contentStyleType="text/css" height="216px" preserveAspectRatio="none" style="width:151px;height:216px;" version="1.1" viewBox="0 0 151 216" width="151px" zoomAndPan="magnify"><defs><filter height="300%" id="fpcb8ta9lcti6" width="300%" x="-1" y="-1"><feGaussianBlur result="blurOut" stdDeviation="2.0"/><feColorMatrix in="blurOut" result="blurOut2" type="matrix" values="0 0 0 0 0 0 0 0 0 0 0 0 0 0 0 0 0 0 .4 0"/><feOffset dx="4.0" dy="4.0" in="blurOut2" result="blurOut3"/><feBlend in="SourceGraphic" in2="blurOut3" mode="normal"/></filter></defs><g><line style="stroke: #A80036; stroke-width: 1.0; stroke-dasharray: 5.0,5.0;" x1="43" x2="43" y1="65.2969" y2="143.5625"/><line style="stroke: #A80036; stroke-width: 1.0; stroke-dasharray: 5.0,5.0;" x1="116" x2="116" y1="65.2969" y2="143.5625"/><rect fill="#FEFECE" filter="url(#fpcb8ta9lcti6)" height="30.2969" style="stroke: #A80036; stroke-width: 1.5;" width="66" x="8" y="30"/><text fill="#000000" font-family="sans-serif" font-size="14" lengthAdjust="spacingAndGlyphs" textLength="52" x="15" y="49.9951">参与者B</text><rect fill="#FEFECE" filter="url(#fpcb8ta9lcti6)" height="30.2969" style="stroke: #A80036; stroke-width: 1.5;" width="66" x="8" y="142.5625"/><text fill="#000000" font-family="sans-serif" font-size="14" lengthAdjust="spacingAndGlyphs" textLength="52" x="15" y="162.5576">参与者B</text><text fill="#000000" font-family="sans-serif" font-size="14" lengthAdjust="spacingAndGlyphs" textLength="51" x="88" y="61.9951">参与者A</text><path d="M98.5,13 C98.5,3 116.5,3 116.5,3 C116.5,3 134.5,3 134.5,13 L134.5,39 C134.5,49 116.5,49 116.5,49 C116.5,49 98.5,49 98.5,39 L98.5,13 " fill="#FF6600" filter="url(#fpcb8ta9lcti6)" style="stroke: #000000; stroke-width: 1.5;"/><path d="M98.5,13 C98.5,23 116.5,23 116.5,23 C116.5,23 134.5,23 134.5,13 " fill="none" style="stroke: #000000; stroke-width: 1.5;"/><text fill="#000000" font-family="sans-serif" font-size="14" lengthAdjust="spacingAndGlyphs" textLength="51" x="88" y="155.5576">参与者A</text><path d="M98.5,168.8594 C98.5,158.8594 116.5,158.8594 116.5,158.8594 C116.5,158.8594 134.5,158.8594 134.5,168.8594 L134.5,194.8594 C134.5,204.8594 116.5,204.8594 116.5,204.8594 C116.5,204.8594 98.5,204.8594 98.5,194.8594 L98.5,168.8594 " fill="#FF6600" filter="url(#fpcb8ta9lcti6)" style="stroke: #000000; stroke-width: 1.5;"/><path d="M98.5,168.8594 C98.5,178.8594 116.5,178.8594 116.5,178.8594 C116.5,178.8594 134.5,178.8594 134.5,168.8594 " fill="none" style="stroke: #000000; stroke-width: 1.5;"/><polygon fill="#A80036" points="54,92.4297,44,96.4297,54,100.4297,50,96.4297" style="stroke: #A80036; stroke-width: 1.0;"/><line style="stroke: #A80036; stroke-width: 1.0;" x1="48" x2="115.5" y1="96.4297" y2="96.4297"/><text fill="#000000" font-family="sans-serif" font-size="13" lengthAdjust="spacingAndGlyphs" textLength="34" x="60" y="91.3638">消息1</text><polygon fill="#A80036" points="104.5,121.5625,114.5,125.5625,104.5,129.5625,108.5,125.5625" style="stroke: #A80036; stroke-width: 1.0;"/><line style="stroke: #A80036; stroke-width: 1.0;" x1="43" x2="110.5" y1="125.5625" y2="125.5625"/><text fill="#000000" font-family="sans-serif" font-size="13" lengthAdjust="spacingAndGlyphs" textLength="34" x="50" y="120.4966">消息2</text></g></svg>