<?xml version="1.0" encoding="UTF-8" standalone="no"?><svg xmlns="http://www.w3.org/2000/svg" xmlns:xlink="http://www.w3.org/1999/xlink" contentScriptType="application/ecmascript" contentStyleType="text/css" height="613.1868px" preserveAspectRatio="none" style="width:625px;height:613px;" version="1.1" viewBox="0 0 625 613" width="625.4317px" zoomAndPan="magnify"><defs><filter height="300%" id="f1vt9qgnpnjmve" width="300%" x="-1" y="-1"><feGaussianBlur result="blurOut" stdDeviation="1.8838304552590266"/><feColorMatrix in="blurOut" result="blurOut2" type="matrix" values="0 0 0 0 0 0 0 0 0 0 0 0 0 0 0 0 0 0 .4 0"/><feOffset dx="3.767660910518053" dy="3.767660910518053" in="blurOut2" result="blurOut3"/><feBlend in="SourceGraphic" in2="blurOut3" mode="normal"/></filter></defs><g><ellipse cx="383.5226" cy="31.0832" fill="#000000" filter="url(#f1vt9qgnpnjmve)" rx="9.4192" ry="9.4192" style="stroke: none; stroke-width: 0.9419152276295133;"/><rect fill="#FEFECE" filter="url(#f1vt9qgnpnjmve)" height="47.0958" rx="11.7739" ry="11.7739" style="stroke: #A80036; stroke-width: 1.41287284144427;" width="61.2245" x="426.3798" y="7.5353"/><line style="stroke: #A80036; stroke-width: 1.41287284144427;" x1="426.3798" x2="487.6043" y1="32.3047" y2="32.3047"/><text fill="#000000" font-family="sans-serif" font-size="13.1868" lengthAdjust="spacingAndGlyphs" textLength="42.3862" x="435.7989" y="24.4852">State1</text><rect fill="#FEFECE" filter="url(#f1vt9qgnpnjmve)" height="47.0958" rx="11.7739" ry="11.7739" style="stroke: #A80036; stroke-width: 1.41287284144427;" width="61.2245" x="246.474" y="127.1586"/><line style="stroke: #A80036; stroke-width: 1.41287284144427;" x1="246.474" x2="307.6985" y1="151.928" y2="151.928"/><text fill="#000000" font-family="sans-serif" font-size="13.1868" lengthAdjust="spacingAndGlyphs" textLength="42.3862" x="255.8931" y="144.1084">State2</text><ellipse cx="278.97" cy="593.4066" fill="none" filter="url(#f1vt9qgnpnjmve)" rx="9.4192" ry="9.4192" style="stroke: #000000; stroke-width: 0.9419152276295133;"/><ellipse cx="279.441" cy="593.8776" fill="#000000" rx="5.6515" ry="5.6515" style="stroke: none; stroke-width: 0.9419152276295133;"/><rect fill="#FEFECE" filter="url(#f1vt9qgnpnjmve)" height="264.9578" rx="11.7739" ry="11.7739" style="stroke: #A80036; stroke-width: 1.41287284144427;" width="311.7739" x="121.1992" y="246.7818"/><rect fill="#FFFFFF" height="234.5369" rx="11.7739" ry="11.7739" style="stroke: #FFFFFF; stroke-width: 0.9419152276295133;" width="306.1224" x="124.025" y="274.377"/><line style="stroke: #A80036; stroke-width: 1.41287284144427;" x1="121.1992" x2="432.9732" y1="271.5512" y2="271.5512"/><text fill="#000000" font-family="sans-serif" font-size="13.1868" lengthAdjust="spacingAndGlyphs" textLength="42.3862" x="255.8931" y="263.7317">State3</text><rect fill="#FEFECE" filter="url(#f1vt9qgnpnjmve)" height="62.6962" rx="11.7739" ry="11.7739" style="stroke: #A80036; stroke-width: 1.41287284144427;" width="183.6735" x="131.5603" y="337.4853"/><line style="stroke: #A80036; stroke-width: 1.41287284144427;" x1="131.5603" x2="315.2338" y1="377.605" y2="377.605"/><text fill="#000000" font-family="sans-serif" font-size="13.1868" lengthAdjust="spacingAndGlyphs" textLength="164.8352" x="140.9795" y="354.4352">Accumulate Enough Data</text><text fill="#000000" font-family="sans-serif" font-size="13.1868" lengthAdjust="spacingAndGlyphs" textLength="111.146" x="167.8241" y="369.7854">Long State Name</text><text fill="#000000" font-family="sans-serif" font-size="11.303" lengthAdjust="spacingAndGlyphs" textLength="60.2826" x="136.2699" y="392.8062">Just a test</text><ellipse cx="223.397" cy="293.2153" fill="#000000" filter="url(#f1vt9qgnpnjmve)" rx="9.4192" ry="9.4192" style="stroke: none; stroke-width: 0.9419152276295133;"/><rect fill="#FEFECE" filter="url(#f1vt9qgnpnjmve)" height="47.0958" rx="11.7739" ry="11.7739" style="stroke: #A80036; stroke-width: 1.41287284144427;" width="101.7268" x="172.5336" y="450.5151"/><line style="stroke: #A80036; stroke-width: 1.41287284144427;" x1="172.5336" x2="274.2605" y1="475.2845" y2="475.2845"/><text fill="#000000" font-family="sans-serif" font-size="13.1868" lengthAdjust="spacingAndGlyphs" textLength="82.8885" x="181.9528" y="467.465">ProcessData</text><path d="M223.397,302.8185 C223.397,310.352 223.397,321.3504 223.397,332.2278 " fill="none" id="*start*State3-&gt;long1" style="stroke: #A80036; stroke-width: 0.9419152276295133;"/><polygon fill="#A80036" points="223.397,337.2041,227.1647,328.7269,223.397,332.4945,219.6294,328.7269,223.397,337.2041" style="stroke: #A80036; stroke-width: 0.9419152276295133;"/><path d="M315.4641,361.3137 C325.6268,362.7812 332.1883,365.3564 332.1883,369.0394 C332.1883,372.0895 327.6884,374.3797 320.37,375.9103 " fill="none" id="long1-&gt;long1" style="stroke: #A80036; stroke-width: 0.9419152276295133;"/><polygon fill="#A80036" points="315.4641,376.7652,324.4622,379.0218,320.1038,375.9568,323.1687,371.5983,315.4641,376.7652" style="stroke: #A80036; stroke-width: 0.9419152276295133;"/><text fill="#000000" font-family="sans-serif" font-size="12.2449" lengthAdjust="spacingAndGlyphs" textLength="58.3987" x="337.8397" y="373.3411">New Data</text><path d="M223.397,400.835 C223.397,415.0302 223.397,431.6309 223.397,445.434 " fill="none" id="long1-&gt;ProcessData" style="stroke: #A80036; stroke-width: 0.9419152276295133;"/><polygon fill="#A80036" points="223.397,450.3831,227.1647,441.9059,223.397,445.6736,219.6294,441.9059,223.397,450.3831" style="stroke: #A80036; stroke-width: 0.9419152276295133;"/><text fill="#000000" font-family="sans-serif" font-size="12.2449" lengthAdjust="spacingAndGlyphs" textLength="78.179" x="224.339" y="429.856">Enough Data</text><path d="M392.9933,31.0832 C402.4313,31.0832 411.8693,31.0832 421.3072,31.0832 " fill="none" id="*start-&gt;State1" style="stroke: #A80036; stroke-width: 0.9419152276295133;"/><polygon fill="#A80036" points="426.2426,31.0832,417.7654,27.3155,421.5331,31.0832,417.7654,34.8509,426.2426,31.0832" style="stroke: #A80036; stroke-width: 0.9419152276295133;"/><path d="M426.0652,51.6472 C394.3035,72.7662 344.9636,105.5733 311.8639,127.582 " fill="none" id="State1-&gt;State2" style="stroke: #A80036; stroke-width: 0.9419152276295133;"/><polygon fill="#A80036" points="307.9101,130.211,317.0554,128.6544,311.8318,127.6033,312.883,122.3797,307.9101,130.211" style="stroke: #A80036; stroke-width: 0.9419152276295133;"/><text fill="#000000" font-family="sans-serif" font-size="12.2449" lengthAdjust="spacingAndGlyphs" textLength="66.876" x="377.8711" y="95.1964">Succeeded</text><path d="M469.7848,54.7452 C508.2892,129.5155 614.3579,364.4353 512.565,511.46 C486.2462,549.4736 339.1589,581.4748 292.8988,590.7177 " fill="none" id="State1-&gt;*end" style="stroke: #A80036; stroke-width: 0.9419152276295133;"/><polygon fill="#A80036" points="288.2543,591.6366,297.3016,593.6874,292.8743,590.7226,295.8391,586.2953,288.2543,591.6366" style="stroke: #A80036; stroke-width: 0.9419152276295133;"/><text fill="#000000" font-family="sans-serif" font-size="12.2449" lengthAdjust="spacingAndGlyphs" textLength="48.0377" x="534.2291" y="214.8197">Aborted</text><path d="M277.0862,174.2905 C277.0862,191.2446 277.0862,215.6351 277.0862,241.7104 " fill="none" id="State2-&gt;State3" style="stroke: #A80036; stroke-width: 0.9419152276295133;"/><polygon fill="#A80036" points="277.0862,246.5975,280.8539,238.1202,277.0862,241.8879,273.3186,238.1202,277.0862,246.5975" style="stroke: #A80036; stroke-width: 0.9419152276295133;"/><text fill="#000000" font-family="sans-serif" font-size="12.2449" lengthAdjust="spacingAndGlyphs" textLength="66.876" x="278.0281" y="214.8197">Succeeded</text><path d="M246.3527,153.6165 C196.1545,160.2129 97.8576,181.2562 54.7942,246.7818 C-9.8121,345.0872 -11.5057,414.2887 54.7942,511.46 C79.7562,548.045 219.3349,580.6687 264.7144,590.4381 " fill="none" id="State2-&gt;*end" style="stroke: #A80036; stroke-width: 0.9419152276295133;"/><polygon fill="#A80036" points="269.5294,591.4647,262.0243,586.012,264.9234,590.4826,260.4528,593.3817,269.5294,591.4647" style="stroke: #A80036; stroke-width: 0.9419152276295133;"/><text fill="#000000" font-family="sans-serif" font-size="12.2449" lengthAdjust="spacingAndGlyphs" textLength="48.0377" x="55.7361" y="383.4225">Aborted</text><path d="M433.034,351.6567 C452.8646,356.4583 465.9402,365.6131 465.9402,379.1209 C465.9402,391.4679 455.0154,400.1779 437.9929,405.2507 " fill="none" id="State3-&gt;State3" style="stroke: #A80036; stroke-width: 0.9419152276295133;"/><polygon fill="#A80036" points="433.034,406.5851,442.1991,408.0207,437.5819,405.3614,440.2412,400.7442,433.034,406.5851" style="stroke: #A80036; stroke-width: 0.9419152276295133;"/><text fill="#000000" font-family="sans-serif" font-size="12.2449" lengthAdjust="spacingAndGlyphs" textLength="34.8509" x="471.5917" y="383.4225">Failed</text><path d="M172.0999,511.6419 C169.9022,526.7947 172.4129,541.7911 181.9528,555.73 C191.6232,569.8596 240.1467,583.7176 264.6965,589.9623 " fill="none" id="State3-&gt;*end" style="stroke: #A80036; stroke-width: 0.9419152276295133;"/><polygon fill="#A80036" points="269.5487,591.1767,262.2399,585.4635,264.9801,590.0332,260.4104,592.7734,269.5487,591.1767" style="stroke: #A80036; stroke-width: 0.9419152276295133;"/><text fill="#000000" font-family="sans-serif" font-size="12.2449" lengthAdjust="spacingAndGlyphs" textLength="148.8226" x="182.8947" y="552.0253">Succeeded / Save Result</text><path d="M330.1497,511.7569 C332.6375,521.1205 334.7785,530.5007 336.4269,539.7174 C337.6798,546.7229 339.8088,549.4682 336.4269,555.73 C327.2386,572.7427 306.6507,583.3163 292.7829,588.7844 " fill="none" id="State3-&gt;*end-1" style="stroke: #A80036; stroke-width: 0.9419152276295133;"/><polygon fill="#A80036" points="288.0112,590.5705,297.2713,591.1272,292.4219,588.9195,294.6296,584.0701,288.0112,590.5705" style="stroke: #A80036; stroke-width: 0.9419152276295133;"/><text fill="#000000" font-family="sans-serif" font-size="12.2449" lengthAdjust="spacingAndGlyphs" textLength="48.0377" x="338.3107" y="552.0253">Aborted</text></g></svg>