<?xml version="1.0" encoding="UTF-8" standalone="no"?><svg xmlns="http://www.w3.org/2000/svg" xmlns:xlink="http://www.w3.org/1999/xlink" contentScriptType="application/ecmascript" contentStyleType="text/css" height="536px" preserveAspectRatio="none" style="width:420px;height:536px;" version="1.1" viewBox="0 0 420 536" width="420px" zoomAndPan="magnify"><defs><filter height="300%" id="f11sfgcgy0r4ep" width="300%" x="-1" y="-1"><feGaussianBlur result="blurOut" stdDeviation="2.0"/><feColorMatrix in="blurOut" result="blurOut2" type="matrix" values="0 0 0 0 0 0 0 0 0 0 0 0 0 0 0 0 0 0 .4 0"/><feOffset dx="4.0" dy="4.0" in="blurOut2" result="blurOut3"/><feBlend in="SourceGraphic" in2="blurOut3" mode="normal"/></filter></defs><g><ellipse cx="48" cy="48.6982" fill="#000000" filter="url(#f11sfgcgy0r4ep)" rx="10" ry="10" style="stroke: none; stroke-width: 1.0;"/><rect fill="#FEFECE" filter="url(#f11sfgcgy0r4ep)" height="33.9688" rx="12.5" ry="12.5" style="stroke: #A80036; stroke-width: 1.5;" width="56" x="20" y="93.6982"/><text fill="#000000" font-family="sans-serif" font-size="12" lengthAdjust="spacingAndGlyphs" textLength="36" x="30" y="114.8369">步骤一</text><rect fill="#FEFECE" filter="url(#f11sfgcgy0r4ep)" height="33.9688" rx="12.5" ry="12.5" style="stroke: #A80036; stroke-width: 1.5;" width="56" x="20" y="433.5732"/><text fill="#000000" font-family="sans-serif" font-size="12" lengthAdjust="spacingAndGlyphs" textLength="36" x="30" y="454.7119">步骤三</text><ellipse cx="48" cy="513.542" fill="#FFFFFF" filter="url(#f11sfgcgy0r4ep)" rx="11" ry="11" style="stroke: #000000; stroke-width: 1.0;"/><ellipse cx="48" cy="513.542" fill="#000000" rx="6" ry="6" style="stroke: #7F7F7F; stroke-width: 1.0;"/><rect fill="#F8F8F8" height="511.7969" style="stroke: #F8F8F8; stroke-width: 1.0;" width="323" x="85" y="12.7451"/><path d="M303,167.085 L303,175.6514 L283,179.6514 L303,183.6514 L303,192.2178 A0,0 0 0 0 303,192.2178 L397,192.2178 A0,0 0 0 0 397,192.2178 L397,177.085 L387,167.085 L303,167.085 A0,0 0 0 0 303,167.085 " fill="#FBFB77" filter="url(#f11sfgcgy0r4ep)" style="stroke: #A80036; stroke-width: 1.0;"/><path d="M387,167.085 L387,177.085 L397,177.085 L387,167.085 " fill="#FBFB77" style="stroke: #A80036; stroke-width: 1.0;"/><text fill="#000000" font-family="sans-serif" font-size="13" lengthAdjust="spacingAndGlyphs" textLength="73" x="309" y="184.1519">步骤2的注释</text><rect fill="#FEFECE" filter="url(#f11sfgcgy0r4ep)" height="33.9688" rx="12.5" ry="12.5" style="stroke: #A80036; stroke-width: 1.5;" width="56" x="227" y="162.667"/><text fill="#000000" font-family="sans-serif" font-size="12" lengthAdjust="spacingAndGlyphs" textLength="36" x="237" y="183.8057">步骤二</text><polygon fill="#FEFECE" filter="url(#f11sfgcgy0r4ep)" points="238.5,231.6357,271.5,231.6357,283.5,243.6357,271.5,255.6357,238.5,255.6357,226.5,243.6357,238.5,231.6357" style="stroke: #A80036; stroke-width: 1.5;"/><text fill="#000000" font-family="sans-serif" font-size="11" lengthAdjust="spacingAndGlyphs" textLength="33" x="238.5" y="247.4438">条件一</text><text fill="#000000" font-family="sans-serif" font-size="11" lengthAdjust="spacingAndGlyphs" textLength="7" x="219.5" y="241.0415">Y</text><text fill="#000000" font-family="sans-serif" font-size="11" lengthAdjust="spacingAndGlyphs" textLength="8" x="283.5" y="241.0415">N</text><path d="M199,270.0537 L199,278.6201 L179,282.6201 L199,286.6201 L199,295.1865 A0,0 0 0 0 199,295.1865 L327,295.1865 A0,0 0 0 0 327,295.1865 L327,280.0537 L317,270.0537 L199,270.0537 A0,0 0 0 0 199,270.0537 " fill="#FBFB77" filter="url(#f11sfgcgy0r4ep)" style="stroke: #A80036; stroke-width: 1.0;"/><path d="M317,270.0537 L317,280.0537 L327,280.0537 L317,270.0537 " fill="#FBFB77" style="stroke: #A80036; stroke-width: 1.0;"/><text fill="#000000" font-family="sans-serif" font-size="13" lengthAdjust="spacingAndGlyphs" textLength="107" x="205" y="287.1206">分支1步骤1的注释</text><rect fill="#FEFECE" filter="url(#f11sfgcgy0r4ep)" height="33.9688" rx="12.5" ry="12.5" style="stroke: #A80036; stroke-width: 1.5;" width="84" x="95" y="265.6357"/><text fill="#000000" font-family="sans-serif" font-size="12" lengthAdjust="spacingAndGlyphs" textLength="64" x="105" y="286.7744">分支1步骤1</text><rect fill="#FEFECE" filter="url(#f11sfgcgy0r4ep)" height="33.9688" rx="12.5" ry="12.5" style="stroke: #A80036; stroke-width: 1.5;" width="84" x="95" y="334.6045"/><text fill="#000000" font-family="sans-serif" font-size="12" lengthAdjust="spacingAndGlyphs" textLength="64" x="105" y="355.7432">分支1步骤2</text><rect fill="#FEFECE" filter="url(#f11sfgcgy0r4ep)" height="33.9688" rx="12.5" ry="12.5" style="stroke: #A80036; stroke-width: 1.5;" width="52" x="347" y="265.6357"/><text fill="#000000" font-family="sans-serif" font-size="12" lengthAdjust="spacingAndGlyphs" textLength="32" x="357" y="286.7744">分支2</text><polygon fill="#FEFECE" filter="url(#f11sfgcgy0r4ep)" points="255,374.5732,267,386.5732,255,398.5732,243,386.5732,255,374.5732" style="stroke: #A80036; stroke-width: 1.5;"/><line style="stroke: #A80036; stroke-width: 1.5;" x1="48" x2="48" y1="58.6982" y2="93.6982"/><polygon fill="#A80036" points="44,83.6982,48,93.6982,52,83.6982,48,87.6982" style="stroke: #A80036; stroke-width: 1.0;"/><line style="stroke: #A80036; stroke-width: 1.5;" x1="48" x2="48" y1="467.542" y2="502.542"/><polygon fill="#A80036" points="44,492.542,48,502.542,52,492.542,48,496.542" style="stroke: #A80036; stroke-width: 1.0;"/><line style="stroke: #A80036; stroke-width: 1.5;" x1="137" x2="137" y1="299.6045" y2="334.6045"/><polygon fill="#A80036" points="133,324.6045,137,334.6045,141,324.6045,137,328.6045" style="stroke: #A80036; stroke-width: 1.0;"/><line style="stroke: #A80036; stroke-width: 1.5;" x1="226.5" x2="137" y1="243.6357" y2="243.6357"/><line style="stroke: #A80036; stroke-width: 1.5;" x1="137" x2="137" y1="243.6357" y2="265.6357"/><polygon fill="#A80036" points="133,255.6357,137,265.6357,141,255.6357,137,259.6357" style="stroke: #A80036; stroke-width: 1.0;"/><line style="stroke: #A80036; stroke-width: 1.5;" x1="283.5" x2="373" y1="243.6357" y2="243.6357"/><line style="stroke: #A80036; stroke-width: 1.5;" x1="373" x2="373" y1="243.6357" y2="265.6357"/><polygon fill="#A80036" points="369,255.6357,373,265.6357,377,255.6357,373,259.6357" style="stroke: #A80036; stroke-width: 1.0;"/><line style="stroke: #A80036; stroke-width: 1.5;" x1="137" x2="137" y1="368.5732" y2="386.5732"/><line style="stroke: #A80036; stroke-width: 1.5;" x1="137" x2="243" y1="386.5732" y2="386.5732"/><polygon fill="#A80036" points="233,382.5732,243,386.5732,233,390.5732,237,386.5732" style="stroke: #A80036; stroke-width: 1.0;"/><line style="stroke: #A80036; stroke-width: 1.5;" x1="373" x2="373" y1="299.6045" y2="386.5732"/><line style="stroke: #A80036; stroke-width: 1.5;" x1="373" x2="267" y1="386.5732" y2="386.5732"/><polygon fill="#A80036" points="277,382.5732,267,386.5732,277,390.5732,273,386.5732" style="stroke: #A80036; stroke-width: 1.0;"/><line style="stroke: #A80036; stroke-width: 1.5;" x1="255" x2="255" y1="196.6357" y2="231.6357"/><polygon fill="#A80036" points="251,221.6357,255,231.6357,259,221.6357,255,225.6357" style="stroke: #A80036; stroke-width: 1.0;"/><line style="stroke: #A80036; stroke-width: 1.5;" x1="48" x2="48" y1="127.667" y2="145.167"/><line style="stroke: #A80036; stroke-width: 1.5;" x1="48" x2="255" y1="145.167" y2="145.167"/><line style="stroke: #A80036; stroke-width: 1.5;" x1="255" x2="255" y1="145.167" y2="162.667"/><polygon fill="#A80036" points="251,152.667,255,162.667,259,152.667,255,156.667" style="stroke: #A80036; stroke-width: 1.0;"/><line style="stroke: #A80036; stroke-width: 1.5;" x1="255" x2="255" y1="398.5732" y2="416.0732"/><line style="stroke: #A80036; stroke-width: 1.5;" x1="255" x2="48" y1="416.0732" y2="416.0732"/><line style="stroke: #A80036; stroke-width: 1.5;" x1="48" x2="48" y1="416.0732" y2="433.5732"/><polygon fill="#A80036" points="44,423.5732,48,433.5732,52,423.5732,48,427.5732" style="stroke: #A80036; stroke-width: 1.0;"/><text fill="#000000" font-family="sans-serif" font-size="18" lengthAdjust="spacingAndGlyphs" textLength="54" x="20.5" y="29.4531">泳道一</text><text fill="#000000" font-family="sans-serif" font-size="18" lengthAdjust="spacingAndGlyphs" textLength="54" x="219.5" y="29.4531">泳道二</text><line style="stroke: #000000; stroke-width: 2.0;" x1="10" x2="10" y1="12.7451" y2="524.542"/><line style="stroke: #000000; stroke-width: 2.0;" x1="85" x2="85" y1="12.7451" y2="524.542"/><line style="stroke: #000000; stroke-width: 2.0;" x1="408" x2="408" y1="12.7451" y2="524.542"/></g></svg>