<?xml version="1.0" encoding="UTF-8" standalone="no"?><svg xmlns="http://www.w3.org/2000/svg" xmlns:xlink="http://www.w3.org/1999/xlink" contentScriptType="application/ecmascript" contentStyleType="text/css" height="280px" preserveAspectRatio="none" style="width:506px;height:280px;" version="1.1" viewBox="0 0 506 280" width="506px" zoomAndPan="magnify"><defs/><g><line style="stroke: #000000; stroke-width: 1.7;" x1="10" x2="10" y1="10" y2="249.8125"/><line style="stroke: #000000; stroke-width: 1.7;" x1="489" x2="489" y1="10" y2="249.8125"/><line style="stroke: #AAAAAA; stroke-width: 0.5; stroke-dasharray: 3.0,5.0;" x1="84" x2="84" y1="10" y2="249.8125"/><line style="stroke: #AAAAAA; stroke-width: 0.5; stroke-dasharray: 3.0,5.0;" x1="134" x2="134" y1="10" y2="249.8125"/><line style="stroke: #AAAAAA; stroke-width: 0.5; stroke-dasharray: 3.0,5.0;" x1="184" x2="184" y1="10" y2="249.8125"/><line style="stroke: #AAAAAA; stroke-width: 0.5; stroke-dasharray: 3.0,5.0;" x1="234" x2="234" y1="10" y2="249.8125"/><line style="stroke: #AAAAAA; stroke-width: 0.5; stroke-dasharray: 3.0,5.0;" x1="284" x2="284" y1="10" y2="249.8125"/><line style="stroke: #AAAAAA; stroke-width: 0.5; stroke-dasharray: 3.0,5.0;" x1="334" x2="334" y1="10" y2="249.8125"/><line style="stroke: #AAAAAA; stroke-width: 0.5; stroke-dasharray: 3.0,5.0;" x1="384" x2="384" y1="10" y2="249.8125"/><line style="stroke: #AAAAAA; stroke-width: 0.5; stroke-dasharray: 3.0,5.0;" x1="434" x2="434" y1="10" y2="249.8125"/><line style="stroke: #AAAAAA; stroke-width: 0.5; stroke-dasharray: 3.0,5.0;" x1="484" x2="484" y1="10" y2="249.8125"/><text fill="#000000" font-family="sans-serif" font-size="12" lengthAdjust="spacingAndGlyphs" textLength="83" x="15" y="21.1387">DNS Resolver</text><line style="stroke: #000000; stroke-width: 1.0;" x1="10" x2="99" y1="24.9688" y2="24.9688"/><line style="stroke: #000000; stroke-width: 1.0;" x1="99" x2="109" y1="24.9688" y2="10"/><line style="stroke: #038048; stroke-width: 1.5;" x1="84" x2="284" y1="57.9375" y2="57.9375"/><line style="stroke: #038048; stroke-width: 1.5;" x1="284" x2="434" y1="37.9375" y2="37.9375"/><line style="stroke: #038048; stroke-width: 1.5;" x1="434" x2="484" y1="57.9375" y2="57.9375"/><line style="stroke: #038048; stroke-width: 1.5;" x1="284" x2="284" y1="37.9375" y2="57.9375"/><line style="stroke: #038048; stroke-width: 1.5;" x1="434" x2="434" y1="37.9375" y2="57.9375"/><text fill="#000000" font-family="sans-serif" font-size="12" lengthAdjust="spacingAndGlyphs" textLength="22" x="15" y="55.1074">Idle</text><text fill="#000000" font-family="sans-serif" font-size="12" lengthAdjust="spacingAndGlyphs" textLength="69" x="15" y="35.1074">Processing</text><line style="stroke: #000000; stroke-width: 1.7;" x1="10" x2="489" y1="10" y2="10"/><text fill="#000000" font-family="sans-serif" font-size="12" lengthAdjust="spacingAndGlyphs" textLength="81" x="15" y="99.0762">Web Browser</text><line style="stroke: #000000; stroke-width: 1.0;" x1="10" x2="97" y1="102.9063" y2="102.9063"/><line style="stroke: #000000; stroke-width: 1.0;" x1="97" x2="107" y1="102.9063" y2="87.9375"/><line style="stroke: #038048; stroke-width: 1.5;" x1="84" x2="134" y1="155.875" y2="155.875"/><line style="stroke: #038048; stroke-width: 1.5;" x1="134" x2="234" y1="135.875" y2="135.875"/><line style="stroke: #038048; stroke-width: 1.5;" x1="234" x2="484" y1="115.875" y2="115.875"/><line style="stroke: #038048; stroke-width: 1.5;" x1="134" x2="134" y1="135.875" y2="155.875"/><line style="stroke: #038048; stroke-width: 1.5;" x1="234" x2="234" y1="115.875" y2="135.875"/><text fill="#000000" font-family="sans-serif" font-size="12" lengthAdjust="spacingAndGlyphs" textLength="22" x="15" y="153.0449">Idle</text><text fill="#000000" font-family="sans-serif" font-size="12" lengthAdjust="spacingAndGlyphs" textLength="69" x="15" y="133.0449">Processing</text><text fill="#000000" font-family="sans-serif" font-size="12" lengthAdjust="spacingAndGlyphs" textLength="46" x="15" y="113.0449">Waiting</text><line style="stroke: #000000; stroke-width: 1.7;" x1="10" x2="489" y1="87.9375" y2="87.9375"/><text fill="#000000" font-family="sans-serif" font-size="12" lengthAdjust="spacingAndGlyphs" textLength="60" x="15" y="197.0137">Web User</text><line style="stroke: #000000; stroke-width: 1.0;" x1="10" x2="76" y1="200.8438" y2="200.8438"/><line style="stroke: #000000; stroke-width: 1.0;" x1="76" x2="86" y1="200.8438" y2="185.875"/><polygon fill="#D7E0F2" points="96,207.8125,122,207.8125,134,219.8125,122,231.8125,96,231.8125,84,219.8125" style="stroke: #038048; stroke-width: 1.5;"/><polygon fill="#D7E0F2" points="146,207.8125,484,207.8125,484,231.8125,146,231.8125,134,219.8125" style="stroke: #D7E0F2; stroke-width: 1.5;"/><path d="M484,207.8125 L146,207.8125 L134,219.8125 L146,231.8125 L484,231.8125 " fill="#D7E0F2" style="stroke: #038048; stroke-width: 1.5;"/><text fill="#000000" font-family="sans-serif" font-size="12" lengthAdjust="spacingAndGlyphs" textLength="22" x="98" y="223.9668">Idle</text><text fill="#000000" font-family="sans-serif" font-size="12" lengthAdjust="spacingAndGlyphs" textLength="46" x="146" y="223.9668">Waiting</text><line style="stroke: #000000; stroke-width: 1.7;" x1="10" x2="489" y1="185.875" y2="185.875"/><line style="stroke: #000000; stroke-width: 2.0;" x1="84" x2="84" y1="249.8125" y2="254.8125"/><line style="stroke: #000000; stroke-width: 2.0;" x1="134" x2="134" y1="249.8125" y2="254.8125"/><line style="stroke: #000000; stroke-width: 2.0;" x1="184" x2="184" y1="249.8125" y2="254.8125"/><line style="stroke: #000000; stroke-width: 2.0;" x1="234" x2="234" y1="249.8125" y2="254.8125"/><line style="stroke: #000000; stroke-width: 2.0;" x1="284" x2="284" y1="249.8125" y2="254.8125"/><line style="stroke: #000000; stroke-width: 2.0;" x1="334" x2="334" y1="249.8125" y2="254.8125"/><line style="stroke: #000000; stroke-width: 2.0;" x1="384" x2="384" y1="249.8125" y2="254.8125"/><line style="stroke: #000000; stroke-width: 2.0;" x1="434" x2="434" y1="249.8125" y2="254.8125"/><line style="stroke: #000000; stroke-width: 2.0;" x1="484" x2="484" y1="249.8125" y2="254.8125"/><line style="stroke: #000000; stroke-width: 2.0;" x1="84" x2="484" y1="249.8125" y2="249.8125"/><text fill="#000000" font-family="sans-serif" font-size="12" lengthAdjust="spacingAndGlyphs" textLength="8" x="80" y="266.9512">0</text><text fill="#000000" font-family="sans-serif" font-size="12" lengthAdjust="spacingAndGlyphs" textLength="24" x="122" y="266.9512">100</text><text fill="#000000" font-family="sans-serif" font-size="12" lengthAdjust="spacingAndGlyphs" textLength="24" x="222" y="266.9512">300</text><text fill="#000000" font-family="sans-serif" font-size="12" lengthAdjust="spacingAndGlyphs" textLength="24" x="272" y="266.9512">400</text><text fill="#000000" font-family="sans-serif" font-size="12" lengthAdjust="spacingAndGlyphs" textLength="24" x="422" y="266.9512">700</text><line style="stroke: #0000FF; stroke-width: 1.0;" x1="134" x2="134" y1="219.8125" y2="155.875"/><polygon fill="#0000FF" points="136.7362,163.3925,131.2638,163.3925,134,155.875" style="stroke: #0000FF; stroke-width: 1.0;"/><text fill="#0000FF" font-family="Serif" font-size="14" lengthAdjust="spacingAndGlyphs" textLength="32" x="134" y="176.3877">URL</text><line style="stroke: #0000FF; stroke-width: 1.0;" x1="234" x2="259" y1="115.875" y2="57.9375"/><polygon fill="#0000FF" points="258.5339,65.9239,253.5094,63.7558,259,57.9375" style="stroke: #0000FF; stroke-width: 1.0;"/><text fill="#0000FF" font-family="Serif" font-size="14" lengthAdjust="spacingAndGlyphs" textLength="90" x="256.0216" y="77.835">Resolve URL</text></g></svg>