<?xml version="1.0" encoding="UTF-8" standalone="no"?><svg xmlns="http://www.w3.org/2000/svg" xmlns:xlink="http://www.w3.org/1999/xlink" contentScriptType="application/ecmascript" contentStyleType="text/css" height="376px" preserveAspectRatio="none" style="width:631px;height:376px;" version="1.1" viewBox="0 0 631 376" width="631px" zoomAndPan="magnify"><defs><filter height="300%" id="ft0do3gzc9trp" width="300%" x="-1" y="-1"><feGaussianBlur result="blurOut" stdDeviation="2.0"/><feColorMatrix in="blurOut" result="blurOut2" type="matrix" values="0 0 0 0 0 0 0 0 0 0 0 0 0 0 0 0 0 0 .4 0"/><feOffset dx="4.0" dy="4.0" in="blurOut2" result="blurOut3"/><feBlend in="SourceGraphic" in2="blurOut3" mode="normal"/></filter></defs><g><rect fill="#FEFECE" filter="url(#ft0do3gzc9trp)" height="36.2969" rx="12.5" ry="12.5" style="stroke: #A80036; stroke-width: 1.5;" width="40" x="319" y="174.8164"/><text fill="#000000" font-family="sans-serif" font-size="14" lengthAdjust="spacingAndGlyphs" textLength="20" x="329" y="197.8115">OS</text><rect fill="#FEFECE" filter="url(#ft0do3gzc9trp)" height="36.2969" rx="12.5" ry="12.5" style="stroke: #A80036; stroke-width: 1.5;" width="71" x="409" y="104.4453"/><text fill="#000000" font-family="sans-serif" font-size="14" lengthAdjust="spacingAndGlyphs" textLength="51" x="419" y="127.4404">Ubuntu</text><rect fill="#FEFECE" filter="url(#ft0do3gzc9trp)" height="36.2969" rx="12.5" ry="12.5" style="stroke: #A80036; stroke-width: 1.5;" width="88" x="530" y="20"/><text fill="#000000" font-family="sans-serif" font-size="14" lengthAdjust="spacingAndGlyphs" textLength="68" x="540" y="42.9951">Linux Mint</text><path d="M480,122.5938 L490,122.5938 C505,122.5938 505,38.1484 520,38.1484 L530,38.1484 " fill="none" style="stroke: #A80036; stroke-width: 1.0;"/><rect fill="#FEFECE" filter="url(#ft0do3gzc9trp)" height="36.2969" rx="12.5" ry="12.5" style="stroke: #A80036; stroke-width: 1.5;" width="79" x="530" y="76.2969"/><text fill="#000000" font-family="sans-serif" font-size="14" lengthAdjust="spacingAndGlyphs" textLength="59" x="540" y="99.292">Kubuntu</text><path d="M480,122.5938 L490,122.5938 C505,122.5938 505,94.4453 520,94.4453 L530,94.4453 " fill="none" style="stroke: #A80036; stroke-width: 1.0;"/><rect fill="#FEFECE" filter="url(#ft0do3gzc9trp)" height="36.2969" rx="12.5" ry="12.5" style="stroke: #A80036; stroke-width: 1.5;" width="77" x="530" y="132.5938"/><text fill="#000000" font-family="sans-serif" font-size="14" lengthAdjust="spacingAndGlyphs" textLength="57" x="540" y="155.5889">Lubuntu</text><path d="M480,122.5938 L490,122.5938 C505,122.5938 505,150.7422 520,150.7422 L530,150.7422 " fill="none" style="stroke: #A80036; stroke-width: 1.0;"/><rect fill="#FEFECE" filter="url(#ft0do3gzc9trp)" height="36.2969" rx="12.5" ry="12.5" style="stroke: #A80036; stroke-width: 1.5;" width="90" x="530" y="188.8906"/><text fill="#000000" font-family="sans-serif" font-size="14" lengthAdjust="spacingAndGlyphs" textLength="70" x="540" y="211.8857">KDE Neon</text><path d="M480,122.5938 L490,122.5938 C505,122.5938 505,207.0391 520,207.0391 L530,207.0391 " fill="none" style="stroke: #A80036; stroke-width: 1.0;"/><path d="M359,192.9648 L369,192.9648 C384,192.9648 384,122.5938 399,122.5938 L409,122.5938 " fill="none" style="stroke: #A80036; stroke-width: 1.0;"/><rect fill="#FEFECE" filter="url(#ft0do3gzc9trp)" height="36.2969" rx="12.5" ry="12.5" style="stroke: #A80036; stroke-width: 1.5;" width="59" x="409" y="160.7422"/><text fill="#000000" font-family="sans-serif" font-size="14" lengthAdjust="spacingAndGlyphs" textLength="39" x="419" y="183.7373">LMDE</text><path d="M359,192.9648 L369,192.9648 C384,192.9648 384,178.8906 399,178.8906 L409,178.8906 " fill="none" style="stroke: #A80036; stroke-width: 1.0;"/><rect fill="#FEFECE" filter="url(#ft0do3gzc9trp)" height="36.2969" rx="12.5" ry="12.5" style="stroke: #A80036; stroke-width: 1.5;" width="75" x="409" y="217.0391"/><text fill="#000000" font-family="sans-serif" font-size="14" lengthAdjust="spacingAndGlyphs" textLength="55" x="419" y="240.0342">SolydXK</text><path d="M359,192.9648 L369,192.9648 C384,192.9648 384,235.1875 399,235.1875 L409,235.1875 " fill="none" style="stroke: #A80036; stroke-width: 1.0;"/><rect fill="#FEFECE" filter="url(#ft0do3gzc9trp)" height="36.2969" rx="12.5" ry="12.5" style="stroke: #A80036; stroke-width: 1.5;" width="84" x="409" y="273.3359"/><text fill="#000000" font-family="sans-serif" font-size="14" lengthAdjust="spacingAndGlyphs" textLength="64" x="419" y="296.3311">SteamOS</text><path d="M359,192.9648 L369,192.9648 C384,192.9648 384,291.4844 399,291.4844 L409,291.4844 " fill="none" style="stroke: #A80036; stroke-width: 1.0;"/><rect fill="#FEFECE" filter="url(#ft0do3gzc9trp)" height="36.2969" rx="12.5" ry="12.5" style="stroke: #A80036; stroke-width: 1.5;" width="84" x="409" y="329.6328"/><text fill="#000000" font-family="sans-serif" font-size="14" lengthAdjust="spacingAndGlyphs" textLength="64" x="419" y="352.6279">Raspbian</text><path d="M359,192.9648 L369,192.9648 C384,192.9648 384,347.7813 399,347.7813 L409,347.7813 " fill="none" style="stroke: #A80036; stroke-width: 1.0;"/><rect fill="#FEFECE" filter="url(#ft0do3gzc9trp)" height="36.2969" rx="12.5" ry="12.5" style="stroke: #A80036; stroke-width: 1.5;" width="104" x="165" y="104.4453"/><text fill="#000000" font-family="sans-serif" font-size="14" lengthAdjust="spacingAndGlyphs" textLength="84" x="175" y="127.4404">Windows 95</text><path d="M319,192.9648 L309,192.9648 C294,192.9648 294,122.5938 279,122.5938 L269,122.5938 " fill="none" style="stroke: #A80036; stroke-width: 1.0;"/><rect fill="#FEFECE" filter="url(#ft0do3gzc9trp)" height="36.2969" rx="12.5" ry="12.5" style="stroke: #A80036; stroke-width: 1.5;" width="104" x="165" y="160.7422"/><text fill="#000000" font-family="sans-serif" font-size="14" lengthAdjust="spacingAndGlyphs" textLength="84" x="175" y="183.7373">Windows 98</text><path d="M319,192.9648 L309,192.9648 C294,192.9648 294,178.8906 279,178.8906 L269,178.8906 " fill="none" style="stroke: #A80036; stroke-width: 1.0;"/><rect fill="#FEFECE" filter="url(#ft0do3gzc9trp)" height="36.2969" rx="12.5" ry="12.5" style="stroke: #A80036; stroke-width: 1.5;" width="105" x="164" y="217.0391"/><text fill="#000000" font-family="sans-serif" font-size="14" lengthAdjust="spacingAndGlyphs" textLength="85" x="174" y="240.0342">Windows NT</text><rect fill="#FEFECE" filter="url(#ft0do3gzc9trp)" height="36.2969" rx="12.5" ry="12.5" style="stroke: #A80036; stroke-width: 1.5;" width="95" x="19" y="188.8906"/><text fill="#000000" font-family="sans-serif" font-size="14" lengthAdjust="spacingAndGlyphs" textLength="75" x="29" y="211.8857">Windows 8</text><path d="M164,235.1875 L154,235.1875 C139,235.1875 139,207.0391 124,207.0391 L114,207.0391 " fill="none" style="stroke: #A80036; stroke-width: 1.0;"/><rect fill="#FEFECE" filter="url(#ft0do3gzc9trp)" height="36.2969" rx="12.5" ry="12.5" style="stroke: #A80036; stroke-width: 1.5;" width="104" x="10" y="245.1875"/><text fill="#000000" font-family="sans-serif" font-size="14" lengthAdjust="spacingAndGlyphs" textLength="84" x="20" y="268.1826">Windows 10</text><path d="M164,235.1875 L154,235.1875 C139,235.1875 139,263.3359 124,263.3359 L114,263.3359 " fill="none" style="stroke: #A80036; stroke-width: 1.0;"/><path d="M319,192.9648 L309,192.9648 C294,192.9648 294,235.1875 279,235.1875 L269,235.1875 " fill="none" style="stroke: #A80036; stroke-width: 1.0;"/></g></svg>