<?xml version="1.0" encoding="UTF-8" standalone="no"?><svg xmlns="http://www.w3.org/2000/svg" xmlns:xlink="http://www.w3.org/1999/xlink" contentScriptType="application/ecmascript" contentStyleType="text/css" height="98px" preserveAspectRatio="none" style="width:416px;height:98px;" version="1.1" viewBox="0 0 416 98" width="416px" zoomAndPan="magnify"><defs/><g><text fill="#000000" font-family="Serif" font-size="10" lengthAdjust="spacingAndGlyphs" textLength="6" x="5" y="9.2822">1</text><line style="stroke: #C0C0C0; stroke-width: 1.0;" x1="0" x2="0" y1="0" y2="96"/><text fill="#000000" font-family="Serif" font-size="10" lengthAdjust="spacingAndGlyphs" textLength="6" x="21" y="9.2822">2</text><line style="stroke: #C0C0C0; stroke-width: 1.0;" x1="16" x2="16" y1="0" y2="96"/><text fill="#000000" font-family="Serif" font-size="10" lengthAdjust="spacingAndGlyphs" textLength="6" x="37" y="9.2822">3</text><line style="stroke: #C0C0C0; stroke-width: 1.0;" x1="32" x2="32" y1="0" y2="96"/><text fill="#000000" font-family="Serif" font-size="10" lengthAdjust="spacingAndGlyphs" textLength="6" x="53" y="9.2822">4</text><line style="stroke: #C0C0C0; stroke-width: 1.0;" x1="48" x2="48" y1="0" y2="96"/><text fill="#000000" font-family="Serif" font-size="10" lengthAdjust="spacingAndGlyphs" textLength="6" x="69" y="9.2822">5</text><line style="stroke: #C0C0C0; stroke-width: 1.0;" x1="64" x2="64" y1="0" y2="96"/><text fill="#000000" font-family="Serif" font-size="10" lengthAdjust="spacingAndGlyphs" textLength="6" x="85" y="9.2822">6</text><line style="stroke: #C0C0C0; stroke-width: 1.0;" x1="80" x2="80" y1="0" y2="96"/><text fill="#000000" font-family="Serif" font-size="10" lengthAdjust="spacingAndGlyphs" textLength="6" x="101" y="9.2822">7</text><line style="stroke: #C0C0C0; stroke-width: 1.0;" x1="96" x2="96" y1="0" y2="96"/><text fill="#000000" font-family="Serif" font-size="10" lengthAdjust="spacingAndGlyphs" textLength="6" x="117" y="9.2822">8</text><line style="stroke: #C0C0C0; stroke-width: 1.0;" x1="112" x2="112" y1="0" y2="96"/><text fill="#000000" font-family="Serif" font-size="10" lengthAdjust="spacingAndGlyphs" textLength="6" x="133" y="9.2822">9</text><line style="stroke: #C0C0C0; stroke-width: 1.0;" x1="128" x2="128" y1="0" y2="96"/><text fill="#000000" font-family="Serif" font-size="10" lengthAdjust="spacingAndGlyphs" textLength="12" x="146" y="9.2822">10</text><line style="stroke: #C0C0C0; stroke-width: 1.0;" x1="144" x2="144" y1="0" y2="96"/><text fill="#000000" font-family="Serif" font-size="10" lengthAdjust="spacingAndGlyphs" textLength="12" x="162" y="9.2822">11</text><line style="stroke: #C0C0C0; stroke-width: 1.0;" x1="160" x2="160" y1="0" y2="96"/><text fill="#000000" font-family="Serif" font-size="10" lengthAdjust="spacingAndGlyphs" textLength="12" x="178" y="9.2822">12</text><line style="stroke: #C0C0C0; stroke-width: 1.0;" x1="176" x2="176" y1="0" y2="96"/><text fill="#000000" font-family="Serif" font-size="10" lengthAdjust="spacingAndGlyphs" textLength="12" x="194" y="9.2822">13</text><line style="stroke: #C0C0C0; stroke-width: 1.0;" x1="192" x2="192" y1="0" y2="96"/><text fill="#000000" font-family="Serif" font-size="10" lengthAdjust="spacingAndGlyphs" textLength="12" x="210" y="9.2822">14</text><line style="stroke: #C0C0C0; stroke-width: 1.0;" x1="208" x2="208" y1="0" y2="96"/><text fill="#000000" font-family="Serif" font-size="10" lengthAdjust="spacingAndGlyphs" textLength="12" x="226" y="9.2822">15</text><line style="stroke: #C0C0C0; stroke-width: 1.0;" x1="224" x2="224" y1="0" y2="96"/><text fill="#000000" font-family="Serif" font-size="10" lengthAdjust="spacingAndGlyphs" textLength="12" x="242" y="9.2822">16</text><line style="stroke: #C0C0C0; stroke-width: 1.0;" x1="240" x2="240" y1="0" y2="96"/><text fill="#000000" font-family="Serif" font-size="10" lengthAdjust="spacingAndGlyphs" textLength="12" x="258" y="9.2822">17</text><line style="stroke: #C0C0C0; stroke-width: 1.0;" x1="256" x2="256" y1="0" y2="96"/><text fill="#000000" font-family="Serif" font-size="10" lengthAdjust="spacingAndGlyphs" textLength="12" x="274" y="9.2822">18</text><line style="stroke: #C0C0C0; stroke-width: 1.0;" x1="272" x2="272" y1="0" y2="96"/><text fill="#000000" font-family="Serif" font-size="10" lengthAdjust="spacingAndGlyphs" textLength="12" x="290" y="9.2822">19</text><line style="stroke: #C0C0C0; stroke-width: 1.0;" x1="288" x2="288" y1="0" y2="96"/><text fill="#000000" font-family="Serif" font-size="10" lengthAdjust="spacingAndGlyphs" textLength="12" x="306" y="9.2822">20</text><line style="stroke: #C0C0C0; stroke-width: 1.0;" x1="304" x2="304" y1="0" y2="96"/><text fill="#000000" font-family="Serif" font-size="10" lengthAdjust="spacingAndGlyphs" textLength="12" x="322" y="9.2822">21</text><line style="stroke: #C0C0C0; stroke-width: 1.0;" x1="320" x2="320" y1="0" y2="96"/><text fill="#000000" font-family="Serif" font-size="10" lengthAdjust="spacingAndGlyphs" textLength="12" x="338" y="9.2822">22</text><line style="stroke: #C0C0C0; stroke-width: 1.0;" x1="336" x2="336" y1="0" y2="96"/><text fill="#000000" font-family="Serif" font-size="10" lengthAdjust="spacingAndGlyphs" textLength="12" x="354" y="9.2822">23</text><line style="stroke: #C0C0C0; stroke-width: 1.0;" x1="352" x2="352" y1="0" y2="96"/><text fill="#000000" font-family="Serif" font-size="10" lengthAdjust="spacingAndGlyphs" textLength="12" x="370" y="9.2822">24</text><line style="stroke: #C0C0C0; stroke-width: 1.0;" x1="368" x2="368" y1="0" y2="96"/><text fill="#000000" font-family="Serif" font-size="10" lengthAdjust="spacingAndGlyphs" textLength="12" x="386" y="9.2822">25</text><line style="stroke: #C0C0C0; stroke-width: 1.0;" x1="384" x2="384" y1="0" y2="96"/><line style="stroke: #C0C0C0; stroke-width: 1.0;" x1="400" x2="400" y1="0" y2="96"/><line style="stroke: #C0C0C0; stroke-width: 1.0;" x1="0" x2="400" y1="0" y2="0"/><line style="stroke: #C0C0C0; stroke-width: 1.0;" x1="0" x2="400" y1="13" y2="13"/><rect fill="#E6E6FA" height="12" rx="4" ry="4" style="stroke: #ADD8E6; stroke-width: 1.0;" width="204" x="2" y="18"/><text fill="#000000" font-family="Serif" font-size="11" lengthAdjust="spacingAndGlyphs" textLength="95" x="16" y="26.8081">Prototype design</text><rect fill="#FF7F50" height="12" rx="4" ry="4" style="stroke: #008000; stroke-width: 1.0;" width="140" x="258" y="34"/><text fill="#000000" font-family="Serif" font-size="11" lengthAdjust="spacingAndGlyphs" textLength="82" x="272" y="42.8081">Test prototype</text><rect fill="#ADFF2F" height="12" rx="4" ry="4" style="stroke: #0000FF; stroke-width: 1.0;" width="76" x="130" y="50"/><text fill="#000000" font-family="Serif" font-size="11" lengthAdjust="spacingAndGlyphs" textLength="62" x="144" y="58.8081">Write tests</text><rect fill="#ADFF2F" height="12" rx="4" ry="4" style="stroke: #0000FF; stroke-width: 1.0;" width="92" x="34" y="66"/><text fill="#000000" font-family="Serif" font-size="11" lengthAdjust="spacingAndGlyphs" textLength="100" x="48" y="74.8081">Hire tests writers</text><rect fill="#FF7F50" height="12" rx="4" ry="4" style="stroke: #008000; stroke-width: 1.0;" width="156" x="242" y="82"/><text fill="#000000" font-family="Serif" font-size="11" lengthAdjust="spacingAndGlyphs" textLength="151" x="256" y="90.8081">Init and write tests report</text><line style="stroke: #CD0A0A; stroke-width: 1.5;" x1="200" x2="200" y1="32" y2="40"/><line style="stroke: #CD0A0A; stroke-width: 1.5;" x1="200" x2="256" y1="40" y2="40"/><polygon fill="#CD0A0A" points="252,36,252,40,252,44,256,40" style="stroke: #CD0A0A; stroke-width: 1.5;"/><line style="stroke: #CD0A0A; stroke-width: 1.5;" x1="208" x2="216" y1="24" y2="24"/><line style="stroke: #CD0A0A; stroke-width: 1.5;" x1="216" x2="216" y1="24" y2="56"/><line style="stroke: #CD0A0A; stroke-width: 1.5;" x1="216" x2="208" y1="56" y2="56"/><polygon fill="#CD0A0A" points="212,52,212,56,212,60,208,56" style="stroke: #CD0A0A; stroke-width: 1.5;"/><line style="stroke: #CD0A0A; stroke-width: 1.5;" x1="136" x2="136" y1="64" y2="72"/><line style="stroke: #CD0A0A; stroke-width: 1.5;" x1="136" x2="128" y1="72" y2="72"/><polygon fill="#CD0A0A" points="132,68,132,72,132,76,128,72" style="stroke: #CD0A0A; stroke-width: 1.5;"/><line style="stroke: #CD0A0A; stroke-width: 1.5;" x1="256" x2="232" y1="40" y2="40"/><line style="stroke: #CD0A0A; stroke-width: 1.5;" x1="232" x2="232" y1="40" y2="88"/><line style="stroke: #CD0A0A; stroke-width: 1.5;" x1="232" x2="240" y1="88" y2="88"/><polygon fill="#CD0A0A" points="236,84,236,88,236,92,240,88" style="stroke: #CD0A0A; stroke-width: 1.5;"/><line style="stroke: #CD0A0A; stroke-width: 1.5;" x1="400" x2="408" y1="40" y2="40"/><line style="stroke: #CD0A0A; stroke-width: 1.5;" x1="408" x2="408" y1="40" y2="88"/><line style="stroke: #CD0A0A; stroke-width: 1.5;" x1="408" x2="400" y1="88" y2="88"/><polygon fill="#CD0A0A" points="404,84,404,88,404,92,400,88" style="stroke: #CD0A0A; stroke-width: 1.5;"/></g></svg>